%TF.GenerationSoftware,KiCad,Pcbnew,(5.1.6)-1*%
%TF.CreationDate,2022-09-13T14:07:30-04:00*%
%TF.ProjectId,soft-power-sw-simple,736f6674-2d70-46f7-9765-722d73772d73,rev?*%
%TF.SameCoordinates,Original*%
%TF.FileFunction,Copper,L1,Top*%
%TF.FilePolarity,Positive*%
%FSLAX46Y46*%
G04 Gerber Fmt 4.6, Leading zero omitted, Abs format (unit mm)*
G04 Created by KiCad (PCBNEW (5.1.6)-1) date 2022-09-13 14:07:30*
%MOMM*%
%LPD*%
G01*
G04 APERTURE LIST*
%TA.AperFunction,ComponentPad*%
%ADD10R,1.700000X1.700000*%
%TD*%
%TA.AperFunction,ComponentPad*%
%ADD11O,1.700000X1.700000*%
%TD*%
%TA.AperFunction,SMDPad,CuDef*%
%ADD12R,1.525000X0.700000*%
%TD*%
%TA.AperFunction,ViaPad*%
%ADD13C,0.800000*%
%TD*%
%TA.AperFunction,Conductor*%
%ADD14C,0.500000*%
%TD*%
%TA.AperFunction,Conductor*%
%ADD15C,0.750000*%
%TD*%
%TA.AperFunction,Conductor*%
%ADD16C,0.254000*%
%TD*%
G04 APERTURE END LIST*
%TO.P,C1,1*%
%TO.N,Net-(C1-Pad1)*%
%TA.AperFunction,SMDPad,CuDef*%
G36*
G01*
X144722001Y-103826000D02*
X143821999Y-103826000D01*
G75*
G02*
X143572000Y-103576001I0J249999D01*
G01*
X143572000Y-102925999D01*
G75*
G02*
X143821999Y-102676000I249999J0D01*
G01*
X144722001Y-102676000D01*
G75*
G02*
X144972000Y-102925999I0J-249999D01*
G01*
X144972000Y-103576001D01*
G75*
G02*
X144722001Y-103826000I-249999J0D01*
G01*
G37*
%TD.AperFunction*%
%TO.P,C1,2*%
%TO.N,GND*%
%TA.AperFunction,SMDPad,CuDef*%
G36*
G01*
X144722001Y-101776000D02*
X143821999Y-101776000D01*
G75*
G02*
X143572000Y-101526001I0J249999D01*
G01*
X143572000Y-100875999D01*
G75*
G02*
X143821999Y-100626000I249999J0D01*
G01*
X144722001Y-100626000D01*
G75*
G02*
X144972000Y-100875999I0J-249999D01*
G01*
X144972000Y-101526001D01*
G75*
G02*
X144722001Y-101776000I-249999J0D01*
G01*
G37*
%TD.AperFunction*%
%TD*%
D10*
%TO.P,J1,1*%
%TO.N,GND*%
X137922000Y-101727000D03*
D11*
%TO.P,J1,2*%
%TO.N,Net-(J1-Pad2)*%
X137922000Y-99187000D03*
%TD*%
%TO.P,J2,2*%
%TO.N,Net-(C1-Pad1)*%
X143002000Y-106934000D03*
D10*
%TO.P,J2,1*%
%TO.N,Net-(J2-Pad1)*%
X145542000Y-106934000D03*
%TD*%
%TO.P,J3,1*%
%TO.N,GND*%
X150622000Y-101600000D03*
D11*
%TO.P,J3,2*%
%TO.N,Net-(J3-Pad2)*%
X150622000Y-99060000D03*
%TD*%
D12*
%TO.P,Q1,1*%
%TO.N,GND*%
X141560000Y-95377000D03*
%TO.P,Q1,2*%
%TO.N,Net-(J2-Pad1)*%
X141560000Y-96647000D03*
%TO.P,Q1,3*%
%TO.N,Net-(J1-Pad2)*%
X141560000Y-97917000D03*
%TO.P,Q1,4*%
%TO.N,Net-(Q1-Pad4)*%
X141560000Y-99187000D03*
%TO.P,Q1,5*%
%TO.N,Net-(Q1-Pad5)*%
X146984000Y-99187000D03*
%TO.P,Q1,6*%
%TO.N,Net-(J3-Pad2)*%
X146984000Y-97917000D03*
%TO.P,Q1,7*%
%TO.N,Net-(Q1-Pad7)*%
X146984000Y-96647000D03*
%TO.P,Q1,8*%
%TO.N,Net-(Q1-Pad4)*%
X146984000Y-95377000D03*
%TD*%
%TO.P,R1,1*%
%TO.N,Net-(J1-Pad2)*%
%TA.AperFunction,SMDPad,CuDef*%
G36*
G01*
X142663000Y-93795001D02*
X142663000Y-92894999D01*
G75*
G02*
X142912999Y-92645000I249999J0D01*
G01*
X143563001Y-92645000D01*
G75*
G02*
X143813000Y-92894999I0J-249999D01*
G01*
X143813000Y-93795001D01*
G75*
G02*
X143563001Y-94045000I-249999J0D01*
G01*
X142912999Y-94045000D01*
G75*
G02*
X142663000Y-93795001I0J249999D01*
G01*
G37*
%TD.AperFunction*%
%TO.P,R1,2*%
%TO.N,Net-(Q1-Pad4)*%
%TA.AperFunction,SMDPad,CuDef*%
G36*
G01*
X144713000Y-93795001D02*
X144713000Y-92894999D01*
G75*
G02*
X144962999Y-92645000I249999J0D01*
G01*
X145613001Y-92645000D01*
G75*
G02*
X145863000Y-92894999I0J-249999D01*
G01*
X145863000Y-93795001D01*
G75*
G02*
X145613001Y-94045000I-249999J0D01*
G01*
X144962999Y-94045000D01*
G75*
G02*
X144713000Y-93795001I0J249999D01*
G01*
G37*
%TD.AperFunction*%
%TD*%
%TO.P,R2,2*%
%TO.N,Net-(C1-Pad1)*%
%TA.AperFunction,SMDPad,CuDef*%
G36*
G01*
X140519999Y-102694000D02*
X141420001Y-102694000D01*
G75*
G02*
X141670000Y-102943999I0J-249999D01*
G01*
X141670000Y-103594001D01*
G75*
G02*
X141420001Y-103844000I-249999J0D01*
G01*
X140519999Y-103844000D01*
G75*
G02*
X140270000Y-103594001I0J249999D01*
G01*
X140270000Y-102943999D01*
G75*
G02*
X140519999Y-102694000I249999J0D01*
G01*
G37*
%TD.AperFunction*%
%TO.P,R2,1*%
%TO.N,Net-(Q1-Pad4)*%
%TA.AperFunction,SMDPad,CuDef*%
G36*
G01*
X140519999Y-100644000D02*
X141420001Y-100644000D01*
G75*
G02*
X141670000Y-100893999I0J-249999D01*
G01*
X141670000Y-101544001D01*
G75*
G02*
X141420001Y-101794000I-249999J0D01*
G01*
X140519999Y-101794000D01*
G75*
G02*
X140270000Y-101544001I0J249999D01*
G01*
X140270000Y-100893999D01*
G75*
G02*
X140519999Y-100644000I249999J0D01*
G01*
G37*
%TD.AperFunction*%
%TD*%
%TO.P,R3,1*%
%TO.N,Net-(J3-Pad2)*%
%TA.AperFunction,SMDPad,CuDef*%
G36*
G01*
X147123999Y-100626000D02*
X148024001Y-100626000D01*
G75*
G02*
X148274000Y-100875999I0J-249999D01*
G01*
X148274000Y-101526001D01*
G75*
G02*
X148024001Y-101776000I-249999J0D01*
G01*
X147123999Y-101776000D01*
G75*
G02*
X146874000Y-101526001I0J249999D01*
G01*
X146874000Y-100875999D01*
G75*
G02*
X147123999Y-100626000I249999J0D01*
G01*
G37*
%TD.AperFunction*%
%TO.P,R3,2*%
%TO.N,Net-(J2-Pad1)*%
%TA.AperFunction,SMDPad,CuDef*%
G36*
G01*
X147123999Y-102676000D02*
X148024001Y-102676000D01*
G75*
G02*
X148274000Y-102925999I0J-249999D01*
G01*
X148274000Y-103576001D01*
G75*
G02*
X148024001Y-103826000I-249999J0D01*
G01*
X147123999Y-103826000D01*
G75*
G02*
X146874000Y-103576001I0J249999D01*
G01*
X146874000Y-102925999D01*
G75*
G02*
X147123999Y-102676000I249999J0D01*
G01*
G37*
%TD.AperFunction*%
%TD*%
D13*
%TO.N,Net-(J2-Pad1)*%
X139954000Y-96647000D03*
X146050000Y-103251000D03*
%TD*%
D14*
%TO.N,Net-(C1-Pad1)*%
X143002000Y-105664000D02*
X143002000Y-106934000D01*
X144272000Y-103251000D02*
X144272000Y-104394000D01*
X144272000Y-104394000D02*
X143002000Y-105664000D01*
X144254000Y-103269000D02*
X144272000Y-103251000D01*
X140970000Y-103269000D02*
X144254000Y-103269000D01*
D15*
%TO.N,Net-(J1-Pad2)*%
X139192000Y-97917000D02*
X137922000Y-99187000D01*
X141560000Y-97917000D02*
X139192000Y-97917000D01*
D14*
X142494000Y-97917000D02*
X141560000Y-97917000D01*
X143238000Y-93345000D02*
X143238000Y-97173000D01*
X143238000Y-97173000D02*
X142494000Y-97917000D01*
%TO.N,Net-(J2-Pad1)*%
X145542000Y-106934000D02*
X147574000Y-104902000D01*
X147574000Y-104902000D02*
X147574000Y-103251000D01*
X141560000Y-96647000D02*
X139954000Y-96647000D01*
X146050000Y-103251000D02*
X147574000Y-103251000D01*
D15*
%TO.N,Net-(J3-Pad2)*%
X149479000Y-97917000D02*
X146984000Y-97917000D01*
X150622000Y-99060000D02*
X149479000Y-97917000D01*
D14*
X147574000Y-101201000D02*
X147592000Y-101201000D01*
X149733000Y-99060000D02*
X150622000Y-99060000D01*
X147592000Y-101201000D02*
X149733000Y-99060000D01*
%TO.N,Net-(Q1-Pad4)*%
X140970000Y-101219000D02*
X140970000Y-100457000D01*
X141560000Y-99867000D02*
X141560000Y-99187000D01*
X140970000Y-100457000D02*
X141560000Y-99867000D01*
X142213965Y-99187000D02*
X146023965Y-95377000D01*
X146023965Y-95377000D02*
X146984000Y-95377000D01*
X141560000Y-99187000D02*
X142213965Y-99187000D01*
X146984000Y-94152000D02*
X146984000Y-95377000D01*
X145288000Y-93345000D02*
X146177000Y-93345000D01*
X146177000Y-93345000D02*
X146984000Y-94152000D01*
%TD*%
D16*
%TO.N,GND*%
G36*
X152075001Y-96622047D02*
G01*
X152075000Y-104092253D01*
X147247050Y-109403000D01*
X141417559Y-109403000D01*
X136469000Y-104213049D01*
X136469000Y-102577000D01*
X136642934Y-102577000D01*
X136651178Y-102660707D01*
X136675595Y-102741196D01*
X136715245Y-102815376D01*
X136768605Y-102880395D01*
X136833624Y-102933755D01*
X136907804Y-102973405D01*
X136988293Y-102997822D01*
X137072000Y-103006066D01*
X137688250Y-103004000D01*
X137795000Y-102897250D01*
X137795000Y-101854000D01*
X138049000Y-101854000D01*
X138049000Y-102897250D01*
X138155750Y-103004000D01*
X138772000Y-103006066D01*
X138855707Y-102997822D01*
X138936196Y-102973405D01*
X138991210Y-102943999D01*
X139840934Y-102943999D01*
X139840934Y-103594001D01*
X139853982Y-103726480D01*
X139892625Y-103853868D01*
X139955377Y-103971269D01*
X140039828Y-104074172D01*
X140142731Y-104158623D01*
X140260132Y-104221375D01*
X140387520Y-104260018D01*
X140519999Y-104273066D01*
X141420001Y-104273066D01*
X141552480Y-104260018D01*
X141679868Y-104221375D01*
X141797269Y-104158623D01*
X141900172Y-104074172D01*
X141984623Y-103971269D01*
X141998130Y-103946000D01*
X143253492Y-103946000D01*
X143257377Y-103953269D01*
X143341828Y-104056172D01*
X143444731Y-104140623D01*
X143525033Y-104183545D01*
X142546800Y-105161778D01*
X142520973Y-105182974D01*
X142436372Y-105286060D01*
X142373508Y-105403671D01*
X142334796Y-105531286D01*
X142325000Y-105630749D01*
X142325000Y-105630755D01*
X142321726Y-105664000D01*
X142325000Y-105697245D01*
X142325000Y-105850522D01*
X142187960Y-105942089D01*
X142010089Y-106119960D01*
X141870337Y-106329114D01*
X141774074Y-106561513D01*
X141725000Y-106808226D01*
X141725000Y-107059774D01*
X141774074Y-107306487D01*
X141870337Y-107538886D01*
X142010089Y-107748040D01*
X142187960Y-107925911D01*
X142397114Y-108065663D01*
X142629513Y-108161926D01*
X142876226Y-108211000D01*
X143127774Y-108211000D01*
X143374487Y-108161926D01*
X143606886Y-108065663D01*
X143816040Y-107925911D01*
X143993911Y-107748040D01*
X144133663Y-107538886D01*
X144229926Y-107306487D01*
X144262934Y-107140544D01*
X144262934Y-107784000D01*
X144271178Y-107867707D01*
X144295595Y-107948196D01*
X144335245Y-108022376D01*
X144388605Y-108087395D01*
X144453624Y-108140755D01*
X144527804Y-108180405D01*
X144608293Y-108204822D01*
X144692000Y-108213066D01*
X146392000Y-108213066D01*
X146475707Y-108204822D01*
X146556196Y-108180405D01*
X146630376Y-108140755D01*
X146695395Y-108087395D01*
X146748755Y-108022376D01*
X146788405Y-107948196D01*
X146812822Y-107867707D01*
X146821066Y-107784000D01*
X146821066Y-106612356D01*
X148029206Y-105404217D01*
X148055026Y-105383027D01*
X148076218Y-105357205D01*
X148076224Y-105357199D01*
X148139628Y-105279941D01*
X148202492Y-105162330D01*
X148241204Y-105034715D01*
X148242408Y-105022492D01*
X148251000Y-104935252D01*
X148251000Y-104935245D01*
X148254274Y-104902000D01*
X148251000Y-104868755D01*
X148251000Y-104213345D01*
X148283868Y-104203375D01*
X148401269Y-104140623D01*
X148504172Y-104056172D01*
X148588623Y-103953269D01*
X148651375Y-103835868D01*
X148690018Y-103708480D01*
X148703066Y-103576001D01*
X148703066Y-102925999D01*
X148690018Y-102793520D01*
X148651375Y-102666132D01*
X148588623Y-102548731D01*
X148507596Y-102450000D01*
X149342934Y-102450000D01*
X149351178Y-102533707D01*
X149375595Y-102614196D01*
X149415245Y-102688376D01*
X149468605Y-102753395D01*
X149533624Y-102806755D01*
X149607804Y-102846405D01*
X149688293Y-102870822D01*
X149772000Y-102879066D01*
X150388250Y-102877000D01*
X150495000Y-102770250D01*
X150495000Y-101727000D01*
X150749000Y-101727000D01*
X150749000Y-102770250D01*
X150855750Y-102877000D01*
X151472000Y-102879066D01*
X151555707Y-102870822D01*
X151636196Y-102846405D01*
X151710376Y-102806755D01*
X151775395Y-102753395D01*
X151828755Y-102688376D01*
X151868405Y-102614196D01*
X151892822Y-102533707D01*
X151901066Y-102450000D01*
X151899000Y-101833750D01*
X151792250Y-101727000D01*
X150749000Y-101727000D01*
X150495000Y-101727000D01*
X149451750Y-101727000D01*
X149345000Y-101833750D01*
X149342934Y-102450000D01*
X148507596Y-102450000D01*
X148504172Y-102445828D01*
X148401269Y-102361377D01*
X148283868Y-102298625D01*
X148156480Y-102259982D01*
X148024001Y-102246934D01*
X147123999Y-102246934D01*
X146991520Y-102259982D01*
X146864132Y-102298625D01*
X146746731Y-102361377D01*
X146643828Y-102445828D01*
X146559377Y-102548731D01*
X146545870Y-102574000D01*
X146525357Y-102574000D01*
X146441731Y-102518123D01*
X146291227Y-102455782D01*
X146131452Y-102424000D01*
X145968548Y-102424000D01*
X145808773Y-102455782D01*
X145658269Y-102518123D01*
X145522819Y-102608628D01*
X145407628Y-102723819D01*
X145379599Y-102765767D01*
X145349375Y-102666132D01*
X145286623Y-102548731D01*
X145202172Y-102445828D01*
X145099269Y-102361377D01*
X144981868Y-102298625D01*
X144854480Y-102259982D01*
X144722001Y-102246934D01*
X143821999Y-102246934D01*
X143689520Y-102259982D01*
X143562132Y-102298625D01*
X143444731Y-102361377D01*
X143341828Y-102445828D01*
X143257377Y-102548731D01*
X143234249Y-102592000D01*
X141998130Y-102592000D01*
X141984623Y-102566731D01*
X141900172Y-102463828D01*
X141797269Y-102379377D01*
X141679868Y-102316625D01*
X141552480Y-102277982D01*
X141420001Y-102264934D01*
X140519999Y-102264934D01*
X140387520Y-102277982D01*
X140260132Y-102316625D01*
X140142731Y-102379377D01*
X140039828Y-102463828D01*
X139955377Y-102566731D01*
X139892625Y-102684132D01*
X139853982Y-102811520D01*
X139840934Y-102943999D01*
X138991210Y-102943999D01*
X139010376Y-102933755D01*
X139075395Y-102880395D01*
X139128755Y-102815376D01*
X139168405Y-102741196D01*
X139192822Y-102660707D01*
X139201066Y-102577000D01*
X139199000Y-101960750D01*
X139092250Y-101854000D01*
X138049000Y-101854000D01*
X137795000Y-101854000D01*
X136751750Y-101854000D01*
X136645000Y-101960750D01*
X136642934Y-102577000D01*
X136469000Y-102577000D01*
X136469000Y-100877000D01*
X136642934Y-100877000D01*
X136645000Y-101493250D01*
X136751750Y-101600000D01*
X137795000Y-101600000D01*
X137795000Y-101580000D01*
X138049000Y-101580000D01*
X138049000Y-101600000D01*
X139092250Y-101600000D01*
X139199000Y-101493250D01*
X139201066Y-100877000D01*
X139192822Y-100793293D01*
X139168405Y-100712804D01*
X139128755Y-100638624D01*
X139075395Y-100573605D01*
X139010376Y-100520245D01*
X138936196Y-100480595D01*
X138855707Y-100456178D01*
X138772000Y-100447934D01*
X138155750Y-100450000D01*
X138049002Y-100556748D01*
X138049002Y-100463756D01*
X138294487Y-100414926D01*
X138526886Y-100318663D01*
X138736040Y-100178911D01*
X138913911Y-100001040D01*
X139053663Y-99791886D01*
X139149926Y-99559487D01*
X139199000Y-99312774D01*
X139199000Y-99061226D01*
X139196175Y-99047024D01*
X139524200Y-98719000D01*
X140387081Y-98719000D01*
X140376678Y-98753293D01*
X140368434Y-98837000D01*
X140368434Y-99537000D01*
X140376678Y-99620707D01*
X140401095Y-99701196D01*
X140440745Y-99775376D01*
X140494105Y-99840395D01*
X140559124Y-99893755D01*
X140570006Y-99899572D01*
X140514799Y-99954778D01*
X140488974Y-99975973D01*
X140467779Y-100001799D01*
X140467776Y-100001802D01*
X140404372Y-100079060D01*
X140341508Y-100196671D01*
X140326384Y-100246528D01*
X140260132Y-100266625D01*
X140142731Y-100329377D01*
X140039828Y-100413828D01*
X139955377Y-100516731D01*
X139892625Y-100634132D01*
X139853982Y-100761520D01*
X139840934Y-100893999D01*
X139840934Y-101544001D01*
X139853982Y-101676480D01*
X139892625Y-101803868D01*
X139955377Y-101921269D01*
X140039828Y-102024172D01*
X140142731Y-102108623D01*
X140260132Y-102171375D01*
X140387520Y-102210018D01*
X140519999Y-102223066D01*
X141420001Y-102223066D01*
X141552480Y-102210018D01*
X141679868Y-102171375D01*
X141797269Y-102108623D01*
X141900172Y-102024172D01*
X141984623Y-101921269D01*
X142047375Y-101803868D01*
X142055828Y-101776000D01*
X143142934Y-101776000D01*
X143151178Y-101859707D01*
X143175595Y-101940196D01*
X143215245Y-102014376D01*
X143268605Y-102079395D01*
X143333624Y-102132755D01*
X143407804Y-102172405D01*
X143488293Y-102196822D01*
X143572000Y-102205066D01*
X144038250Y-102203000D01*
X144145000Y-102096250D01*
X144145000Y-101328000D01*
X144399000Y-101328000D01*
X144399000Y-102096250D01*
X144505750Y-102203000D01*
X144972000Y-102205066D01*
X145055707Y-102196822D01*
X145136196Y-102172405D01*
X145210376Y-102132755D01*
X145275395Y-102079395D01*
X145328755Y-102014376D01*
X145368405Y-101940196D01*
X145392822Y-101859707D01*
X145401066Y-101776000D01*
X145399000Y-101434750D01*
X145292250Y-101328000D01*
X144399000Y-101328000D01*
X144145000Y-101328000D01*
X143251750Y-101328000D01*
X143145000Y-101434750D01*
X143142934Y-101776000D01*
X142055828Y-101776000D01*
X142086018Y-101676480D01*
X142099066Y-101544001D01*
X142099066Y-100893999D01*
X142086018Y-100761520D01*
X142047375Y-100634132D01*
X142043029Y-100626000D01*
X143142934Y-100626000D01*
X143145000Y-100967250D01*
X143251750Y-101074000D01*
X144145000Y-101074000D01*
X144145000Y-100305750D01*
X144399000Y-100305750D01*
X144399000Y-101074000D01*
X145292250Y-101074000D01*
X145399000Y-100967250D01*
X145401066Y-100626000D01*
X145392822Y-100542293D01*
X145368405Y-100461804D01*
X145328755Y-100387624D01*
X145275395Y-100322605D01*
X145210376Y-100269245D01*
X145136196Y-100229595D01*
X145055707Y-100205178D01*
X144972000Y-100196934D01*
X144505750Y-100199000D01*
X144399000Y-100305750D01*
X144145000Y-100305750D01*
X144038250Y-100199000D01*
X143572000Y-100196934D01*
X143488293Y-100205178D01*
X143407804Y-100229595D01*
X143333624Y-100269245D01*
X143268605Y-100322605D01*
X143215245Y-100387624D01*
X143175595Y-100461804D01*
X143151178Y-100542293D01*
X143142934Y-100626000D01*
X142043029Y-100626000D01*
X141984623Y-100516731D01*
X141931916Y-100452507D01*
X142015205Y-100369218D01*
X142041026Y-100348027D01*
X142062218Y-100322205D01*
X142062224Y-100322199D01*
X142125628Y-100244941D01*
X142188492Y-100127330D01*
X142227204Y-99999715D01*
X142230518Y-99966066D01*
X142322500Y-99966066D01*
X142406207Y-99957822D01*
X142486696Y-99933405D01*
X142560876Y-99893755D01*
X142625895Y-99840395D01*
X142679255Y-99775376D01*
X142718905Y-99701196D01*
X142743322Y-99620707D01*
X142743938Y-99614449D01*
X145792434Y-96565954D01*
X145792434Y-96997000D01*
X145800678Y-97080707D01*
X145825095Y-97161196D01*
X145864745Y-97235376D01*
X145903009Y-97282000D01*
X145864745Y-97328624D01*
X145825095Y-97402804D01*
X145800678Y-97483293D01*
X145792434Y-97567000D01*
X145792434Y-98267000D01*
X145800678Y-98350707D01*
X145825095Y-98431196D01*
X145864745Y-98505376D01*
X145903009Y-98552000D01*
X145864745Y-98598624D01*
X145825095Y-98672804D01*
X145800678Y-98753293D01*
X145792434Y-98837000D01*
X145792434Y-99537000D01*
X145800678Y-99620707D01*
X145825095Y-99701196D01*
X145864745Y-99775376D01*
X145918105Y-99840395D01*
X145983124Y-99893755D01*
X146057304Y-99933405D01*
X146137793Y-99957822D01*
X146221500Y-99966066D01*
X147746500Y-99966066D01*
X147830207Y-99957822D01*
X147898462Y-99937116D01*
X147638644Y-100196934D01*
X147123999Y-100196934D01*
X146991520Y-100209982D01*
X146864132Y-100248625D01*
X146746731Y-100311377D01*
X146643828Y-100395828D01*
X146559377Y-100498731D01*
X146496625Y-100616132D01*
X146457982Y-100743520D01*
X146444934Y-100875999D01*
X146444934Y-101526001D01*
X146457982Y-101658480D01*
X146496625Y-101785868D01*
X146559377Y-101903269D01*
X146643828Y-102006172D01*
X146746731Y-102090623D01*
X146864132Y-102153375D01*
X146991520Y-102192018D01*
X147123999Y-102205066D01*
X148024001Y-102205066D01*
X148156480Y-102192018D01*
X148283868Y-102153375D01*
X148401269Y-102090623D01*
X148504172Y-102006172D01*
X148588623Y-101903269D01*
X148651375Y-101785868D01*
X148690018Y-101658480D01*
X148703066Y-101526001D01*
X148703066Y-101047356D01*
X149753236Y-99997187D01*
X149807960Y-100051911D01*
X150017114Y-100191663D01*
X150249513Y-100287926D01*
X150494998Y-100336756D01*
X150494998Y-100429748D01*
X150388250Y-100323000D01*
X149772000Y-100320934D01*
X149688293Y-100329178D01*
X149607804Y-100353595D01*
X149533624Y-100393245D01*
X149468605Y-100446605D01*
X149415245Y-100511624D01*
X149375595Y-100585804D01*
X149351178Y-100666293D01*
X149342934Y-100750000D01*
X149345000Y-101366250D01*
X149451750Y-101473000D01*
X150495000Y-101473000D01*
X150495000Y-101453000D01*
X150749000Y-101453000D01*
X150749000Y-101473000D01*
X151792250Y-101473000D01*
X151899000Y-101366250D01*
X151901066Y-100750000D01*
X151892822Y-100666293D01*
X151868405Y-100585804D01*
X151828755Y-100511624D01*
X151775395Y-100446605D01*
X151710376Y-100393245D01*
X151636196Y-100353595D01*
X151555707Y-100329178D01*
X151472000Y-100320934D01*
X150855750Y-100323000D01*
X150749002Y-100429748D01*
X150749002Y-100336756D01*
X150994487Y-100287926D01*
X151226886Y-100191663D01*
X151436040Y-100051911D01*
X151613911Y-99874040D01*
X151753663Y-99664886D01*
X151849926Y-99432487D01*
X151899000Y-99185774D01*
X151899000Y-98934226D01*
X151849926Y-98687513D01*
X151753663Y-98455114D01*
X151613911Y-98245960D01*
X151436040Y-98068089D01*
X151226886Y-97928337D01*
X150994487Y-97832074D01*
X150747774Y-97783000D01*
X150496226Y-97783000D01*
X150482023Y-97785825D01*
X150073960Y-97377762D01*
X150048843Y-97347157D01*
X149926723Y-97246935D01*
X149787397Y-97172464D01*
X149636219Y-97126605D01*
X149518394Y-97115000D01*
X149518386Y-97115000D01*
X149479000Y-97111121D01*
X149439614Y-97115000D01*
X148156919Y-97115000D01*
X148167322Y-97080707D01*
X148175566Y-96997000D01*
X148175566Y-96297000D01*
X148167322Y-96213293D01*
X148142905Y-96132804D01*
X148103255Y-96058624D01*
X148064991Y-96012000D01*
X148103255Y-95965376D01*
X148142905Y-95891196D01*
X148167322Y-95810707D01*
X148175566Y-95727000D01*
X148175566Y-95027000D01*
X148167322Y-94943293D01*
X148142905Y-94862804D01*
X148103255Y-94788624D01*
X148049895Y-94723605D01*
X147984876Y-94670245D01*
X147910696Y-94630595D01*
X147830207Y-94606178D01*
X147746500Y-94597934D01*
X147661000Y-94597934D01*
X147661000Y-94185241D01*
X147664274Y-94151999D01*
X147661000Y-94118757D01*
X147661000Y-94118748D01*
X147651204Y-94019285D01*
X147612492Y-93891670D01*
X147549628Y-93774059D01*
X147465026Y-93670973D01*
X147439200Y-93649778D01*
X146679226Y-92889804D01*
X146658027Y-92863973D01*
X146554941Y-92779372D01*
X146437330Y-92716508D01*
X146309715Y-92677796D01*
X146251580Y-92672070D01*
X146240375Y-92635132D01*
X146177623Y-92517731D01*
X146093172Y-92414828D01*
X145990269Y-92330377D01*
X145872868Y-92267625D01*
X145745480Y-92228982D01*
X145613001Y-92215934D01*
X144962999Y-92215934D01*
X144830520Y-92228982D01*
X144703132Y-92267625D01*
X144585731Y-92330377D01*
X144482828Y-92414828D01*
X144398377Y-92517731D01*
X144335625Y-92635132D01*
X144296982Y-92762520D01*
X144283934Y-92894999D01*
X144283934Y-93795001D01*
X144296982Y-93927480D01*
X144335625Y-94054868D01*
X144398377Y-94172269D01*
X144482828Y-94275172D01*
X144585731Y-94359623D01*
X144703132Y-94422375D01*
X144830520Y-94461018D01*
X144962999Y-94474066D01*
X145613001Y-94474066D01*
X145745480Y-94461018D01*
X145872868Y-94422375D01*
X145990269Y-94359623D01*
X146093172Y-94275172D01*
X146118675Y-94244097D01*
X146307000Y-94432422D01*
X146307000Y-94597934D01*
X146221500Y-94597934D01*
X146137793Y-94606178D01*
X146057304Y-94630595D01*
X145983124Y-94670245D01*
X145940888Y-94704907D01*
X145891250Y-94709796D01*
X145763635Y-94748508D01*
X145646024Y-94811372D01*
X145542938Y-94895973D01*
X145521743Y-94921799D01*
X143915000Y-96528542D01*
X143915000Y-94373130D01*
X143940269Y-94359623D01*
X144043172Y-94275172D01*
X144127623Y-94172269D01*
X144190375Y-94054868D01*
X144229018Y-93927480D01*
X144242066Y-93795001D01*
X144242066Y-92894999D01*
X144229018Y-92762520D01*
X144190375Y-92635132D01*
X144127623Y-92517731D01*
X144043172Y-92414828D01*
X143940269Y-92330377D01*
X143822868Y-92267625D01*
X143695480Y-92228982D01*
X143563001Y-92215934D01*
X142912999Y-92215934D01*
X142780520Y-92228982D01*
X142653132Y-92267625D01*
X142535731Y-92330377D01*
X142432828Y-92414828D01*
X142348377Y-92517731D01*
X142285625Y-92635132D01*
X142246982Y-92762520D01*
X142233934Y-92894999D01*
X142233934Y-93795001D01*
X142246982Y-93927480D01*
X142285625Y-94054868D01*
X142348377Y-94172269D01*
X142432828Y-94275172D01*
X142535731Y-94359623D01*
X142561000Y-94373130D01*
X142561000Y-94670347D01*
X142560876Y-94670245D01*
X142486696Y-94630595D01*
X142406207Y-94606178D01*
X142322500Y-94597934D01*
X141793750Y-94600000D01*
X141687000Y-94706750D01*
X141687000Y-95250000D01*
X141707000Y-95250000D01*
X141707000Y-95504000D01*
X141687000Y-95504000D01*
X141687000Y-95524000D01*
X141433000Y-95524000D01*
X141433000Y-95504000D01*
X140477250Y-95504000D01*
X140370500Y-95610750D01*
X140368434Y-95727000D01*
X140376678Y-95810707D01*
X140401095Y-95891196D01*
X140440745Y-95965376D01*
X140444540Y-95970000D01*
X140429357Y-95970000D01*
X140345731Y-95914123D01*
X140195227Y-95851782D01*
X140035452Y-95820000D01*
X139872548Y-95820000D01*
X139712773Y-95851782D01*
X139562269Y-95914123D01*
X139426819Y-96004628D01*
X139311628Y-96119819D01*
X139221123Y-96255269D01*
X139158782Y-96405773D01*
X139127000Y-96565548D01*
X139127000Y-96728452D01*
X139158782Y-96888227D01*
X139221123Y-97038731D01*
X139272084Y-97115000D01*
X139231385Y-97115000D01*
X139191999Y-97111121D01*
X139152613Y-97115000D01*
X139152606Y-97115000D01*
X139049471Y-97125158D01*
X139034780Y-97126605D01*
X138997434Y-97137934D01*
X138883603Y-97172464D01*
X138744277Y-97246935D01*
X138744275Y-97246936D01*
X138744276Y-97246936D01*
X138652755Y-97322045D01*
X138652751Y-97322049D01*
X138622157Y-97347157D01*
X138597048Y-97377752D01*
X138061976Y-97912825D01*
X138047774Y-97910000D01*
X137796226Y-97910000D01*
X137549513Y-97959074D01*
X137317114Y-98055337D01*
X137107960Y-98195089D01*
X136930089Y-98372960D01*
X136790337Y-98582114D01*
X136694074Y-98814513D01*
X136645000Y-99061226D01*
X136645000Y-99312774D01*
X136694074Y-99559487D01*
X136790337Y-99791886D01*
X136930089Y-100001040D01*
X137107960Y-100178911D01*
X137317114Y-100318663D01*
X137549513Y-100414926D01*
X137794998Y-100463756D01*
X137794998Y-100556748D01*
X137688250Y-100450000D01*
X137072000Y-100447934D01*
X136988293Y-100456178D01*
X136907804Y-100480595D01*
X136833624Y-100520245D01*
X136768605Y-100573605D01*
X136715245Y-100638624D01*
X136675595Y-100712804D01*
X136651178Y-100793293D01*
X136642934Y-100877000D01*
X136469000Y-100877000D01*
X136469000Y-96617449D01*
X138565501Y-95027000D01*
X140368434Y-95027000D01*
X140370500Y-95143250D01*
X140477250Y-95250000D01*
X141433000Y-95250000D01*
X141433000Y-94706750D01*
X141326250Y-94600000D01*
X140797500Y-94597934D01*
X140713793Y-94606178D01*
X140633304Y-94630595D01*
X140559124Y-94670245D01*
X140494105Y-94723605D01*
X140440745Y-94788624D01*
X140401095Y-94862804D01*
X140376678Y-94943293D01*
X140368434Y-95027000D01*
X138565501Y-95027000D01*
X143535047Y-91257000D01*
X144759030Y-91257000D01*
X152075001Y-96622047D01*
G37*
X152075001Y-96622047D02*
X152075000Y-104092253D01*
X147247050Y-109403000D01*
X141417559Y-109403000D01*
X136469000Y-104213049D01*
X136469000Y-102577000D01*
X136642934Y-102577000D01*
X136651178Y-102660707D01*
X136675595Y-102741196D01*
X136715245Y-102815376D01*
X136768605Y-102880395D01*
X136833624Y-102933755D01*
X136907804Y-102973405D01*
X136988293Y-102997822D01*
X137072000Y-103006066D01*
X137688250Y-103004000D01*
X137795000Y-102897250D01*
X137795000Y-101854000D01*
X138049000Y-101854000D01*
X138049000Y-102897250D01*
X138155750Y-103004000D01*
X138772000Y-103006066D01*
X138855707Y-102997822D01*
X138936196Y-102973405D01*
X138991210Y-102943999D01*
X139840934Y-102943999D01*
X139840934Y-103594001D01*
X139853982Y-103726480D01*
X139892625Y-103853868D01*
X139955377Y-103971269D01*
X140039828Y-104074172D01*
X140142731Y-104158623D01*
X140260132Y-104221375D01*
X140387520Y-104260018D01*
X140519999Y-104273066D01*
X141420001Y-104273066D01*
X141552480Y-104260018D01*
X141679868Y-104221375D01*
X141797269Y-104158623D01*
X141900172Y-104074172D01*
X141984623Y-103971269D01*
X141998130Y-103946000D01*
X143253492Y-103946000D01*
X143257377Y-103953269D01*
X143341828Y-104056172D01*
X143444731Y-104140623D01*
X143525033Y-104183545D01*
X142546800Y-105161778D01*
X142520973Y-105182974D01*
X142436372Y-105286060D01*
X142373508Y-105403671D01*
X142334796Y-105531286D01*
X142325000Y-105630749D01*
X142325000Y-105630755D01*
X142321726Y-105664000D01*
X142325000Y-105697245D01*
X142325000Y-105850522D01*
X142187960Y-105942089D01*
X142010089Y-106119960D01*
X141870337Y-106329114D01*
X141774074Y-106561513D01*
X141725000Y-106808226D01*
X141725000Y-107059774D01*
X141774074Y-107306487D01*
X141870337Y-107538886D01*
X142010089Y-107748040D01*
X142187960Y-107925911D01*
X142397114Y-108065663D01*
X142629513Y-108161926D01*
X142876226Y-108211000D01*
X143127774Y-108211000D01*
X143374487Y-108161926D01*
X143606886Y-108065663D01*
X143816040Y-107925911D01*
X143993911Y-107748040D01*
X144133663Y-107538886D01*
X144229926Y-107306487D01*
X144262934Y-107140544D01*
X144262934Y-107784000D01*
X144271178Y-107867707D01*
X144295595Y-107948196D01*
X144335245Y-108022376D01*
X144388605Y-108087395D01*
X144453624Y-108140755D01*
X144527804Y-108180405D01*
X144608293Y-108204822D01*
X144692000Y-108213066D01*
X146392000Y-108213066D01*
X146475707Y-108204822D01*
X146556196Y-108180405D01*
X146630376Y-108140755D01*
X146695395Y-108087395D01*
X146748755Y-108022376D01*
X146788405Y-107948196D01*
X146812822Y-107867707D01*
X146821066Y-107784000D01*
X146821066Y-106612356D01*
X148029206Y-105404217D01*
X148055026Y-105383027D01*
X148076218Y-105357205D01*
X148076224Y-105357199D01*
X148139628Y-105279941D01*
X148202492Y-105162330D01*
X148241204Y-105034715D01*
X148242408Y-105022492D01*
X148251000Y-104935252D01*
X148251000Y-104935245D01*
X148254274Y-104902000D01*
X148251000Y-104868755D01*
X148251000Y-104213345D01*
X148283868Y-104203375D01*
X148401269Y-104140623D01*
X148504172Y-104056172D01*
X148588623Y-103953269D01*
X148651375Y-103835868D01*
X148690018Y-103708480D01*
X148703066Y-103576001D01*
X148703066Y-102925999D01*
X148690018Y-102793520D01*
X148651375Y-102666132D01*
X148588623Y-102548731D01*
X148507596Y-102450000D01*
X149342934Y-102450000D01*
X149351178Y-102533707D01*
X149375595Y-102614196D01*
X149415245Y-102688376D01*
X149468605Y-102753395D01*
X149533624Y-102806755D01*
X149607804Y-102846405D01*
X149688293Y-102870822D01*
X149772000Y-102879066D01*
X150388250Y-102877000D01*
X150495000Y-102770250D01*
X150495000Y-101727000D01*
X150749000Y-101727000D01*
X150749000Y-102770250D01*
X150855750Y-102877000D01*
X151472000Y-102879066D01*
X151555707Y-102870822D01*
X151636196Y-102846405D01*
X151710376Y-102806755D01*
X151775395Y-102753395D01*
X151828755Y-102688376D01*
X151868405Y-102614196D01*
X151892822Y-102533707D01*
X151901066Y-102450000D01*
X151899000Y-101833750D01*
X151792250Y-101727000D01*
X150749000Y-101727000D01*
X150495000Y-101727000D01*
X149451750Y-101727000D01*
X149345000Y-101833750D01*
X149342934Y-102450000D01*
X148507596Y-102450000D01*
X148504172Y-102445828D01*
X148401269Y-102361377D01*
X148283868Y-102298625D01*
X148156480Y-102259982D01*
X148024001Y-102246934D01*
X147123999Y-102246934D01*
X146991520Y-102259982D01*
X146864132Y-102298625D01*
X146746731Y-102361377D01*
X146643828Y-102445828D01*
X146559377Y-102548731D01*
X146545870Y-102574000D01*
X146525357Y-102574000D01*
X146441731Y-102518123D01*
X146291227Y-102455782D01*
X146131452Y-102424000D01*
X145968548Y-102424000D01*
X145808773Y-102455782D01*
X145658269Y-102518123D01*
X145522819Y-102608628D01*
X145407628Y-102723819D01*
X145379599Y-102765767D01*
X145349375Y-102666132D01*
X145286623Y-102548731D01*
X145202172Y-102445828D01*
X145099269Y-102361377D01*
X144981868Y-102298625D01*
X144854480Y-102259982D01*
X144722001Y-102246934D01*
X143821999Y-102246934D01*
X143689520Y-102259982D01*
X143562132Y-102298625D01*
X143444731Y-102361377D01*
X143341828Y-102445828D01*
X143257377Y-102548731D01*
X143234249Y-102592000D01*
X141998130Y-102592000D01*
X141984623Y-102566731D01*
X141900172Y-102463828D01*
X141797269Y-102379377D01*
X141679868Y-102316625D01*
X141552480Y-102277982D01*
X141420001Y-102264934D01*
X140519999Y-102264934D01*
X140387520Y-102277982D01*
X140260132Y-102316625D01*
X140142731Y-102379377D01*
X140039828Y-102463828D01*
X139955377Y-102566731D01*
X139892625Y-102684132D01*
X139853982Y-102811520D01*
X139840934Y-102943999D01*
X138991210Y-102943999D01*
X139010376Y-102933755D01*
X139075395Y-102880395D01*
X139128755Y-102815376D01*
X139168405Y-102741196D01*
X139192822Y-102660707D01*
X139201066Y-102577000D01*
X139199000Y-101960750D01*
X139092250Y-101854000D01*
X138049000Y-101854000D01*
X137795000Y-101854000D01*
X136751750Y-101854000D01*
X136645000Y-101960750D01*
X136642934Y-102577000D01*
X136469000Y-102577000D01*
X136469000Y-100877000D01*
X136642934Y-100877000D01*
X136645000Y-101493250D01*
X136751750Y-101600000D01*
X137795000Y-101600000D01*
X137795000Y-101580000D01*
X138049000Y-101580000D01*
X138049000Y-101600000D01*
X139092250Y-101600000D01*
X139199000Y-101493250D01*
X139201066Y-100877000D01*
X139192822Y-100793293D01*
X139168405Y-100712804D01*
X139128755Y-100638624D01*
X139075395Y-100573605D01*
X139010376Y-100520245D01*
X138936196Y-100480595D01*
X138855707Y-100456178D01*
X138772000Y-100447934D01*
X138155750Y-100450000D01*
X138049002Y-100556748D01*
X138049002Y-100463756D01*
X138294487Y-100414926D01*
X138526886Y-100318663D01*
X138736040Y-100178911D01*
X138913911Y-100001040D01*
X139053663Y-99791886D01*
X139149926Y-99559487D01*
X139199000Y-99312774D01*
X139199000Y-99061226D01*
X139196175Y-99047024D01*
X139524200Y-98719000D01*
X140387081Y-98719000D01*
X140376678Y-98753293D01*
X140368434Y-98837000D01*
X140368434Y-99537000D01*
X140376678Y-99620707D01*
X140401095Y-99701196D01*
X140440745Y-99775376D01*
X140494105Y-99840395D01*
X140559124Y-99893755D01*
X140570006Y-99899572D01*
X140514799Y-99954778D01*
X140488974Y-99975973D01*
X140467779Y-100001799D01*
X140467776Y-100001802D01*
X140404372Y-100079060D01*
X140341508Y-100196671D01*
X140326384Y-100246528D01*
X140260132Y-100266625D01*
X140142731Y-100329377D01*
X140039828Y-100413828D01*
X139955377Y-100516731D01*
X139892625Y-100634132D01*
X139853982Y-100761520D01*
X139840934Y-100893999D01*
X139840934Y-101544001D01*
X139853982Y-101676480D01*
X139892625Y-101803868D01*
X139955377Y-101921269D01*
X140039828Y-102024172D01*
X140142731Y-102108623D01*
X140260132Y-102171375D01*
X140387520Y-102210018D01*
X140519999Y-102223066D01*
X141420001Y-102223066D01*
X141552480Y-102210018D01*
X141679868Y-102171375D01*
X141797269Y-102108623D01*
X141900172Y-102024172D01*
X141984623Y-101921269D01*
X142047375Y-101803868D01*
X142055828Y-101776000D01*
X143142934Y-101776000D01*
X143151178Y-101859707D01*
X143175595Y-101940196D01*
X143215245Y-102014376D01*
X143268605Y-102079395D01*
X143333624Y-102132755D01*
X143407804Y-102172405D01*
X143488293Y-102196822D01*
X143572000Y-102205066D01*
X144038250Y-102203000D01*
X144145000Y-102096250D01*
X144145000Y-101328000D01*
X144399000Y-101328000D01*
X144399000Y-102096250D01*
X144505750Y-102203000D01*
X144972000Y-102205066D01*
X145055707Y-102196822D01*
X145136196Y-102172405D01*
X145210376Y-102132755D01*
X145275395Y-102079395D01*
X145328755Y-102014376D01*
X145368405Y-101940196D01*
X145392822Y-101859707D01*
X145401066Y-101776000D01*
X145399000Y-101434750D01*
X145292250Y-101328000D01*
X144399000Y-101328000D01*
X144145000Y-101328000D01*
X143251750Y-101328000D01*
X143145000Y-101434750D01*
X143142934Y-101776000D01*
X142055828Y-101776000D01*
X142086018Y-101676480D01*
X142099066Y-101544001D01*
X142099066Y-100893999D01*
X142086018Y-100761520D01*
X142047375Y-100634132D01*
X142043029Y-100626000D01*
X143142934Y-100626000D01*
X143145000Y-100967250D01*
X143251750Y-101074000D01*
X144145000Y-101074000D01*
X144145000Y-100305750D01*
X144399000Y-100305750D01*
X144399000Y-101074000D01*
X145292250Y-101074000D01*
X145399000Y-100967250D01*
X145401066Y-100626000D01*
X145392822Y-100542293D01*
X145368405Y-100461804D01*
X145328755Y-100387624D01*
X145275395Y-100322605D01*
X145210376Y-100269245D01*
X145136196Y-100229595D01*
X145055707Y-100205178D01*
X144972000Y-100196934D01*
X144505750Y-100199000D01*
X144399000Y-100305750D01*
X144145000Y-100305750D01*
X144038250Y-100199000D01*
X143572000Y-100196934D01*
X143488293Y-100205178D01*
X143407804Y-100229595D01*
X143333624Y-100269245D01*
X143268605Y-100322605D01*
X143215245Y-100387624D01*
X143175595Y-100461804D01*
X143151178Y-100542293D01*
X143142934Y-100626000D01*
X142043029Y-100626000D01*
X141984623Y-100516731D01*
X141931916Y-100452507D01*
X142015205Y-100369218D01*
X142041026Y-100348027D01*
X142062218Y-100322205D01*
X142062224Y-100322199D01*
X142125628Y-100244941D01*
X142188492Y-100127330D01*
X142227204Y-99999715D01*
X142230518Y-99966066D01*
X142322500Y-99966066D01*
X142406207Y-99957822D01*
X142486696Y-99933405D01*
X142560876Y-99893755D01*
X142625895Y-99840395D01*
X142679255Y-99775376D01*
X142718905Y-99701196D01*
X142743322Y-99620707D01*
X142743938Y-99614449D01*
X145792434Y-96565954D01*
X145792434Y-96997000D01*
X145800678Y-97080707D01*
X145825095Y-97161196D01*
X145864745Y-97235376D01*
X145903009Y-97282000D01*
X145864745Y-97328624D01*
X145825095Y-97402804D01*
X145800678Y-97483293D01*
X145792434Y-97567000D01*
X145792434Y-98267000D01*
X145800678Y-98350707D01*
X145825095Y-98431196D01*
X145864745Y-98505376D01*
X145903009Y-98552000D01*
X145864745Y-98598624D01*
X145825095Y-98672804D01*
X145800678Y-98753293D01*
X145792434Y-98837000D01*
X145792434Y-99537000D01*
X145800678Y-99620707D01*
X145825095Y-99701196D01*
X145864745Y-99775376D01*
X145918105Y-99840395D01*
X145983124Y-99893755D01*
X146057304Y-99933405D01*
X146137793Y-99957822D01*
X146221500Y-99966066D01*
X147746500Y-99966066D01*
X147830207Y-99957822D01*
X147898462Y-99937116D01*
X147638644Y-100196934D01*
X147123999Y-100196934D01*
X146991520Y-100209982D01*
X146864132Y-100248625D01*
X146746731Y-100311377D01*
X146643828Y-100395828D01*
X146559377Y-100498731D01*
X146496625Y-100616132D01*
X146457982Y-100743520D01*
X146444934Y-100875999D01*
X146444934Y-101526001D01*
X146457982Y-101658480D01*
X146496625Y-101785868D01*
X146559377Y-101903269D01*
X146643828Y-102006172D01*
X146746731Y-102090623D01*
X146864132Y-102153375D01*
X146991520Y-102192018D01*
X147123999Y-102205066D01*
X148024001Y-102205066D01*
X148156480Y-102192018D01*
X148283868Y-102153375D01*
X148401269Y-102090623D01*
X148504172Y-102006172D01*
X148588623Y-101903269D01*
X148651375Y-101785868D01*
X148690018Y-101658480D01*
X148703066Y-101526001D01*
X148703066Y-101047356D01*
X149753236Y-99997187D01*
X149807960Y-100051911D01*
X150017114Y-100191663D01*
X150249513Y-100287926D01*
X150494998Y-100336756D01*
X150494998Y-100429748D01*
X150388250Y-100323000D01*
X149772000Y-100320934D01*
X149688293Y-100329178D01*
X149607804Y-100353595D01*
X149533624Y-100393245D01*
X149468605Y-100446605D01*
X149415245Y-100511624D01*
X149375595Y-100585804D01*
X149351178Y-100666293D01*
X149342934Y-100750000D01*
X149345000Y-101366250D01*
X149451750Y-101473000D01*
X150495000Y-101473000D01*
X150495000Y-101453000D01*
X150749000Y-101453000D01*
X150749000Y-101473000D01*
X151792250Y-101473000D01*
X151899000Y-101366250D01*
X151901066Y-100750000D01*
X151892822Y-100666293D01*
X151868405Y-100585804D01*
X151828755Y-100511624D01*
X151775395Y-100446605D01*
X151710376Y-100393245D01*
X151636196Y-100353595D01*
X151555707Y-100329178D01*
X151472000Y-100320934D01*
X150855750Y-100323000D01*
X150749002Y-100429748D01*
X150749002Y-100336756D01*
X150994487Y-100287926D01*
X151226886Y-100191663D01*
X151436040Y-100051911D01*
X151613911Y-99874040D01*
X151753663Y-99664886D01*
X151849926Y-99432487D01*
X151899000Y-99185774D01*
X151899000Y-98934226D01*
X151849926Y-98687513D01*
X151753663Y-98455114D01*
X151613911Y-98245960D01*
X151436040Y-98068089D01*
X151226886Y-97928337D01*
X150994487Y-97832074D01*
X150747774Y-97783000D01*
X150496226Y-97783000D01*
X150482023Y-97785825D01*
X150073960Y-97377762D01*
X150048843Y-97347157D01*
X149926723Y-97246935D01*
X149787397Y-97172464D01*
X149636219Y-97126605D01*
X149518394Y-97115000D01*
X149518386Y-97115000D01*
X149479000Y-97111121D01*
X149439614Y-97115000D01*
X148156919Y-97115000D01*
X148167322Y-97080707D01*
X148175566Y-96997000D01*
X148175566Y-96297000D01*
X148167322Y-96213293D01*
X148142905Y-96132804D01*
X148103255Y-96058624D01*
X148064991Y-96012000D01*
X148103255Y-95965376D01*
X148142905Y-95891196D01*
X148167322Y-95810707D01*
X148175566Y-95727000D01*
X148175566Y-95027000D01*
X148167322Y-94943293D01*
X148142905Y-94862804D01*
X148103255Y-94788624D01*
X148049895Y-94723605D01*
X147984876Y-94670245D01*
X147910696Y-94630595D01*
X147830207Y-94606178D01*
X147746500Y-94597934D01*
X147661000Y-94597934D01*
X147661000Y-94185241D01*
X147664274Y-94151999D01*
X147661000Y-94118757D01*
X147661000Y-94118748D01*
X147651204Y-94019285D01*
X147612492Y-93891670D01*
X147549628Y-93774059D01*
X147465026Y-93670973D01*
X147439200Y-93649778D01*
X146679226Y-92889804D01*
X146658027Y-92863973D01*
X146554941Y-92779372D01*
X146437330Y-92716508D01*
X146309715Y-92677796D01*
X146251580Y-92672070D01*
X146240375Y-92635132D01*
X146177623Y-92517731D01*
X146093172Y-92414828D01*
X145990269Y-92330377D01*
X145872868Y-92267625D01*
X145745480Y-92228982D01*
X145613001Y-92215934D01*
X144962999Y-92215934D01*
X144830520Y-92228982D01*
X144703132Y-92267625D01*
X144585731Y-92330377D01*
X144482828Y-92414828D01*
X144398377Y-92517731D01*
X144335625Y-92635132D01*
X144296982Y-92762520D01*
X144283934Y-92894999D01*
X144283934Y-93795001D01*
X144296982Y-93927480D01*
X144335625Y-94054868D01*
X144398377Y-94172269D01*
X144482828Y-94275172D01*
X144585731Y-94359623D01*
X144703132Y-94422375D01*
X144830520Y-94461018D01*
X144962999Y-94474066D01*
X145613001Y-94474066D01*
X145745480Y-94461018D01*
X145872868Y-94422375D01*
X145990269Y-94359623D01*
X146093172Y-94275172D01*
X146118675Y-94244097D01*
X146307000Y-94432422D01*
X146307000Y-94597934D01*
X146221500Y-94597934D01*
X146137793Y-94606178D01*
X146057304Y-94630595D01*
X145983124Y-94670245D01*
X145940888Y-94704907D01*
X145891250Y-94709796D01*
X145763635Y-94748508D01*
X145646024Y-94811372D01*
X145542938Y-94895973D01*
X145521743Y-94921799D01*
X143915000Y-96528542D01*
X143915000Y-94373130D01*
X143940269Y-94359623D01*
X144043172Y-94275172D01*
X144127623Y-94172269D01*
X144190375Y-94054868D01*
X144229018Y-93927480D01*
X144242066Y-93795001D01*
X144242066Y-92894999D01*
X144229018Y-92762520D01*
X144190375Y-92635132D01*
X144127623Y-92517731D01*
X144043172Y-92414828D01*
X143940269Y-92330377D01*
X143822868Y-92267625D01*
X143695480Y-92228982D01*
X143563001Y-92215934D01*
X142912999Y-92215934D01*
X142780520Y-92228982D01*
X142653132Y-92267625D01*
X142535731Y-92330377D01*
X142432828Y-92414828D01*
X142348377Y-92517731D01*
X142285625Y-92635132D01*
X142246982Y-92762520D01*
X142233934Y-92894999D01*
X142233934Y-93795001D01*
X142246982Y-93927480D01*
X142285625Y-94054868D01*
X142348377Y-94172269D01*
X142432828Y-94275172D01*
X142535731Y-94359623D01*
X142561000Y-94373130D01*
X142561000Y-94670347D01*
X142560876Y-94670245D01*
X142486696Y-94630595D01*
X142406207Y-94606178D01*
X142322500Y-94597934D01*
X141793750Y-94600000D01*
X141687000Y-94706750D01*
X141687000Y-95250000D01*
X141707000Y-95250000D01*
X141707000Y-95504000D01*
X141687000Y-95504000D01*
X141687000Y-95524000D01*
X141433000Y-95524000D01*
X141433000Y-95504000D01*
X140477250Y-95504000D01*
X140370500Y-95610750D01*
X140368434Y-95727000D01*
X140376678Y-95810707D01*
X140401095Y-95891196D01*
X140440745Y-95965376D01*
X140444540Y-95970000D01*
X140429357Y-95970000D01*
X140345731Y-95914123D01*
X140195227Y-95851782D01*
X140035452Y-95820000D01*
X139872548Y-95820000D01*
X139712773Y-95851782D01*
X139562269Y-95914123D01*
X139426819Y-96004628D01*
X139311628Y-96119819D01*
X139221123Y-96255269D01*
X139158782Y-96405773D01*
X139127000Y-96565548D01*
X139127000Y-96728452D01*
X139158782Y-96888227D01*
X139221123Y-97038731D01*
X139272084Y-97115000D01*
X139231385Y-97115000D01*
X139191999Y-97111121D01*
X139152613Y-97115000D01*
X139152606Y-97115000D01*
X139049471Y-97125158D01*
X139034780Y-97126605D01*
X138997434Y-97137934D01*
X138883603Y-97172464D01*
X138744277Y-97246935D01*
X138744275Y-97246936D01*
X138744276Y-97246936D01*
X138652755Y-97322045D01*
X138652751Y-97322049D01*
X138622157Y-97347157D01*
X138597048Y-97377752D01*
X138061976Y-97912825D01*
X138047774Y-97910000D01*
X137796226Y-97910000D01*
X137549513Y-97959074D01*
X137317114Y-98055337D01*
X137107960Y-98195089D01*
X136930089Y-98372960D01*
X136790337Y-98582114D01*
X136694074Y-98814513D01*
X136645000Y-99061226D01*
X136645000Y-99312774D01*
X136694074Y-99559487D01*
X136790337Y-99791886D01*
X136930089Y-100001040D01*
X137107960Y-100178911D01*
X137317114Y-100318663D01*
X137549513Y-100414926D01*
X137794998Y-100463756D01*
X137794998Y-100556748D01*
X137688250Y-100450000D01*
X137072000Y-100447934D01*
X136988293Y-100456178D01*
X136907804Y-100480595D01*
X136833624Y-100520245D01*
X136768605Y-100573605D01*
X136715245Y-100638624D01*
X136675595Y-100712804D01*
X136651178Y-100793293D01*
X136642934Y-100877000D01*
X136469000Y-100877000D01*
X136469000Y-96617449D01*
X138565501Y-95027000D01*
X140368434Y-95027000D01*
X140370500Y-95143250D01*
X140477250Y-95250000D01*
X141433000Y-95250000D01*
X141433000Y-94706750D01*
X141326250Y-94600000D01*
X140797500Y-94597934D01*
X140713793Y-94606178D01*
X140633304Y-94630595D01*
X140559124Y-94670245D01*
X140494105Y-94723605D01*
X140440745Y-94788624D01*
X140401095Y-94862804D01*
X140376678Y-94943293D01*
X140368434Y-95027000D01*
X138565501Y-95027000D01*
X143535047Y-91257000D01*
X144759030Y-91257000D01*
X152075001Y-96622047D01*
%TD*%
M02*
