%FSLAX45Y45*%
G04 Gerber Fmt 4.5, Leading zero omitted, Abs format (unit mm)*
G04 Created by KiCad (PCBNEW (5.1.6)-1) date 2022-09-13 14:07:32*
%MOMM*%
%LPD*%
G01*
G04 APERTURE LIST*
%TA.AperFunction,Profile*%
%ADD10C,0.050000*%
%TD*%
%ADD11C,0.200000*%
%ADD12C,0.300000*%
G04 APERTURE END LIST*
D10*
X15252700Y-9639300D02*
X14490700Y-9080500D01*
X15252700Y-10426700D02*
X15252700Y-9639300D01*
X14744700Y-10985500D02*
X15252700Y-10426700D01*
X14122400Y-10985500D02*
X14744700Y-10985500D01*
X13601700Y-10439400D02*
X14122400Y-10985500D01*
X13601700Y-9639300D02*
X13601700Y-10439400D01*
X14338300Y-9080500D02*
X13601700Y-9639300D01*
X14338300Y-9080500D02*
X14490700Y-9080500D01*
D11*
X13975400Y-9644700D02*
X14015400Y-9684700D01*
X14015400Y-9644700D02*
X13975400Y-9684700D01*
X14585000Y-10305100D02*
X14625000Y-10345100D01*
X14625000Y-10305100D02*
X14585000Y-10345100D01*
X14350200Y-10693400D02*
G75*
G03*
X14350200Y-10693400I-50000J0D01*
G01*
X14604200Y-10693400D02*
G75*
G03*
X14604200Y-10693400I-50000J0D01*
G01*
X13842200Y-9918700D02*
G75*
G03*
X13842200Y-9918700I-50000J0D01*
G01*
X13842200Y-10172700D02*
G75*
G03*
X13842200Y-10172700I-50000J0D01*
G01*
X15112200Y-9906000D02*
G75*
G03*
X15112200Y-9906000I-50000J0D01*
G01*
X15112200Y-10160000D02*
G75*
G03*
X15112200Y-10160000I-50000J0D01*
G01*
D12*
X13885628Y-11453714D02*
X13885628Y-11153714D01*
X13957057Y-11153714D01*
X13999914Y-11168000D01*
X14028486Y-11196571D01*
X14042771Y-11225143D01*
X14057057Y-11282286D01*
X14057057Y-11325143D01*
X14042771Y-11382286D01*
X14028486Y-11410857D01*
X13999914Y-11439429D01*
X13957057Y-11453714D01*
X13885628Y-11453714D01*
X14185628Y-11453714D02*
X14185628Y-11253714D01*
X14185628Y-11310857D02*
X14199914Y-11282286D01*
X14214200Y-11268000D01*
X14242771Y-11253714D01*
X14271343Y-11253714D01*
X14371343Y-11453714D02*
X14371343Y-11253714D01*
X14371343Y-11153714D02*
X14357057Y-11168000D01*
X14371343Y-11182286D01*
X14385628Y-11168000D01*
X14371343Y-11153714D01*
X14371343Y-11182286D01*
X14557057Y-11453714D02*
X14528486Y-11439429D01*
X14514200Y-11410857D01*
X14514200Y-11153714D01*
X14714200Y-11453714D02*
X14685628Y-11439429D01*
X14671343Y-11410857D01*
X14671343Y-11153714D01*
X15057057Y-11453714D02*
X15057057Y-11153714D01*
X15157057Y-11368000D01*
X15257057Y-11153714D01*
X15257057Y-11453714D01*
X15528486Y-11453714D02*
X15528486Y-11296571D01*
X15514200Y-11268000D01*
X15485628Y-11253714D01*
X15428486Y-11253714D01*
X15399914Y-11268000D01*
X15528486Y-11439429D02*
X15499914Y-11453714D01*
X15428486Y-11453714D01*
X15399914Y-11439429D01*
X15385628Y-11410857D01*
X15385628Y-11382286D01*
X15399914Y-11353714D01*
X15428486Y-11339429D01*
X15499914Y-11339429D01*
X15528486Y-11325143D01*
X15671343Y-11253714D02*
X15671343Y-11553714D01*
X15671343Y-11268000D02*
X15699914Y-11253714D01*
X15757057Y-11253714D01*
X15785628Y-11268000D01*
X15799914Y-11282286D01*
X15814200Y-11310857D01*
X15814200Y-11396571D01*
X15799914Y-11425143D01*
X15785628Y-11439429D01*
X15757057Y-11453714D01*
X15699914Y-11453714D01*
X15671343Y-11439429D01*
X15942771Y-11425143D02*
X15957057Y-11439429D01*
X15942771Y-11453714D01*
X15928486Y-11439429D01*
X15942771Y-11425143D01*
X15942771Y-11453714D01*
X15942771Y-11268000D02*
X15957057Y-11282286D01*
X15942771Y-11296571D01*
X15928486Y-11282286D01*
X15942771Y-11268000D01*
X15942771Y-11296571D01*
X13559200Y-11928000D02*
X13599200Y-11968000D01*
X13599200Y-11928000D02*
X13559200Y-11968000D01*
X13942771Y-11783714D02*
X13971343Y-11783714D01*
X13999914Y-11798000D01*
X14014200Y-11812286D01*
X14028486Y-11840857D01*
X14042771Y-11898000D01*
X14042771Y-11969429D01*
X14028486Y-12026571D01*
X14014200Y-12055143D01*
X13999914Y-12069429D01*
X13971343Y-12083714D01*
X13942771Y-12083714D01*
X13914200Y-12069429D01*
X13899914Y-12055143D01*
X13885628Y-12026571D01*
X13871343Y-11969429D01*
X13871343Y-11898000D01*
X13885628Y-11840857D01*
X13899914Y-11812286D01*
X13914200Y-11798000D01*
X13942771Y-11783714D01*
X14171343Y-12055143D02*
X14185628Y-12069429D01*
X14171343Y-12083714D01*
X14157057Y-12069429D01*
X14171343Y-12055143D01*
X14171343Y-12083714D01*
X14442771Y-11883714D02*
X14442771Y-12083714D01*
X14371343Y-11769429D02*
X14299914Y-11983714D01*
X14485628Y-11983714D01*
X14657057Y-11783714D02*
X14685628Y-11783714D01*
X14714200Y-11798000D01*
X14728486Y-11812286D01*
X14742771Y-11840857D01*
X14757057Y-11898000D01*
X14757057Y-11969429D01*
X14742771Y-12026571D01*
X14728486Y-12055143D01*
X14714200Y-12069429D01*
X14685628Y-12083714D01*
X14657057Y-12083714D01*
X14628486Y-12069429D01*
X14614200Y-12055143D01*
X14599914Y-12026571D01*
X14585628Y-11969429D01*
X14585628Y-11898000D01*
X14599914Y-11840857D01*
X14614200Y-11812286D01*
X14628486Y-11798000D01*
X14657057Y-11783714D01*
X14885628Y-12083714D02*
X14885628Y-11883714D01*
X14885628Y-11912286D02*
X14899914Y-11898000D01*
X14928486Y-11883714D01*
X14971343Y-11883714D01*
X14999914Y-11898000D01*
X15014200Y-11926571D01*
X15014200Y-12083714D01*
X15014200Y-11926571D02*
X15028486Y-11898000D01*
X15057057Y-11883714D01*
X15099914Y-11883714D01*
X15128486Y-11898000D01*
X15142771Y-11926571D01*
X15142771Y-12083714D01*
X15285628Y-12083714D02*
X15285628Y-11883714D01*
X15285628Y-11912286D02*
X15299914Y-11898000D01*
X15328486Y-11883714D01*
X15371343Y-11883714D01*
X15399914Y-11898000D01*
X15414200Y-11926571D01*
X15414200Y-12083714D01*
X15414200Y-11926571D02*
X15428486Y-11898000D01*
X15457057Y-11883714D01*
X15499914Y-11883714D01*
X15528486Y-11898000D01*
X15542771Y-11926571D01*
X15542771Y-12083714D01*
X16128486Y-11769429D02*
X15871343Y-12155143D01*
X16514200Y-11783714D02*
X16542771Y-11783714D01*
X16571343Y-11798000D01*
X16585628Y-11812286D01*
X16599914Y-11840857D01*
X16614200Y-11898000D01*
X16614200Y-11969429D01*
X16599914Y-12026571D01*
X16585628Y-12055143D01*
X16571343Y-12069429D01*
X16542771Y-12083714D01*
X16514200Y-12083714D01*
X16485628Y-12069429D01*
X16471343Y-12055143D01*
X16457057Y-12026571D01*
X16442771Y-11969429D01*
X16442771Y-11898000D01*
X16457057Y-11840857D01*
X16471343Y-11812286D01*
X16485628Y-11798000D01*
X16514200Y-11783714D01*
X16742771Y-12055143D02*
X16757057Y-12069429D01*
X16742771Y-12083714D01*
X16728486Y-12069429D01*
X16742771Y-12055143D01*
X16742771Y-12083714D01*
X16942771Y-11783714D02*
X16971343Y-11783714D01*
X16999914Y-11798000D01*
X17014200Y-11812286D01*
X17028486Y-11840857D01*
X17042771Y-11898000D01*
X17042771Y-11969429D01*
X17028486Y-12026571D01*
X17014200Y-12055143D01*
X16999914Y-12069429D01*
X16971343Y-12083714D01*
X16942771Y-12083714D01*
X16914200Y-12069429D01*
X16899914Y-12055143D01*
X16885628Y-12026571D01*
X16871343Y-11969429D01*
X16871343Y-11898000D01*
X16885628Y-11840857D01*
X16899914Y-11812286D01*
X16914200Y-11798000D01*
X16942771Y-11783714D01*
X17328486Y-12083714D02*
X17157057Y-12083714D01*
X17242771Y-12083714D02*
X17242771Y-11783714D01*
X17214200Y-11826571D01*
X17185628Y-11855143D01*
X17157057Y-11869429D01*
X17585628Y-11783714D02*
X17528486Y-11783714D01*
X17499914Y-11798000D01*
X17485628Y-11812286D01*
X17457057Y-11855143D01*
X17442771Y-11912286D01*
X17442771Y-12026571D01*
X17457057Y-12055143D01*
X17471343Y-12069429D01*
X17499914Y-12083714D01*
X17557057Y-12083714D01*
X17585628Y-12069429D01*
X17599914Y-12055143D01*
X17614200Y-12026571D01*
X17614200Y-11955143D01*
X17599914Y-11926571D01*
X17585628Y-11912286D01*
X17557057Y-11898000D01*
X17499914Y-11898000D01*
X17471343Y-11912286D01*
X17457057Y-11926571D01*
X17442771Y-11955143D01*
X17728486Y-11783714D02*
X17728486Y-11840857D01*
X17842771Y-11783714D02*
X17842771Y-11840857D01*
X18285628Y-12198000D02*
X18271343Y-12183714D01*
X18242771Y-12140857D01*
X18228486Y-12112286D01*
X18214200Y-12069429D01*
X18199914Y-11998000D01*
X18199914Y-11940857D01*
X18214200Y-11869429D01*
X18228486Y-11826571D01*
X18242771Y-11798000D01*
X18271343Y-11755143D01*
X18285628Y-11740857D01*
X18385628Y-11812286D02*
X18399914Y-11798000D01*
X18428486Y-11783714D01*
X18499914Y-11783714D01*
X18528486Y-11798000D01*
X18542771Y-11812286D01*
X18557057Y-11840857D01*
X18557057Y-11869429D01*
X18542771Y-11912286D01*
X18371343Y-12083714D01*
X18557057Y-12083714D01*
X18914200Y-12083714D02*
X18914200Y-11783714D01*
X19042771Y-12083714D02*
X19042771Y-11926571D01*
X19028486Y-11898000D01*
X18999914Y-11883714D01*
X18957057Y-11883714D01*
X18928486Y-11898000D01*
X18914200Y-11912286D01*
X19228486Y-12083714D02*
X19199914Y-12069429D01*
X19185628Y-12055143D01*
X19171343Y-12026571D01*
X19171343Y-11940857D01*
X19185628Y-11912286D01*
X19199914Y-11898000D01*
X19228486Y-11883714D01*
X19271343Y-11883714D01*
X19299914Y-11898000D01*
X19314200Y-11912286D01*
X19328486Y-11940857D01*
X19328486Y-12026571D01*
X19314200Y-12055143D01*
X19299914Y-12069429D01*
X19271343Y-12083714D01*
X19228486Y-12083714D01*
X19499914Y-12083714D02*
X19471343Y-12069429D01*
X19457057Y-12040857D01*
X19457057Y-11783714D01*
X19728486Y-12069429D02*
X19699914Y-12083714D01*
X19642771Y-12083714D01*
X19614200Y-12069429D01*
X19599914Y-12040857D01*
X19599914Y-11926571D01*
X19614200Y-11898000D01*
X19642771Y-11883714D01*
X19699914Y-11883714D01*
X19728486Y-11898000D01*
X19742771Y-11926571D01*
X19742771Y-11955143D01*
X19599914Y-11983714D01*
X19857057Y-12069429D02*
X19885628Y-12083714D01*
X19942771Y-12083714D01*
X19971343Y-12069429D01*
X19985628Y-12040857D01*
X19985628Y-12026571D01*
X19971343Y-11998000D01*
X19942771Y-11983714D01*
X19899914Y-11983714D01*
X19871343Y-11969429D01*
X19857057Y-11940857D01*
X19857057Y-11926571D01*
X19871343Y-11898000D01*
X19899914Y-11883714D01*
X19942771Y-11883714D01*
X19971343Y-11898000D01*
X20085628Y-12198000D02*
X20099914Y-12183714D01*
X20128486Y-12140857D01*
X20142771Y-12112286D01*
X20157057Y-12069429D01*
X20171343Y-11998000D01*
X20171343Y-11940857D01*
X20157057Y-11869429D01*
X20142771Y-11826571D01*
X20128486Y-11798000D01*
X20099914Y-11755143D01*
X20085628Y-11740857D01*
X13599200Y-12344000D02*
G75*
G03*
X13599200Y-12344000I-50000J0D01*
G01*
X14042771Y-12479714D02*
X13871343Y-12479714D01*
X13957057Y-12479714D02*
X13957057Y-12179714D01*
X13928486Y-12222571D01*
X13899914Y-12251143D01*
X13871343Y-12265429D01*
X14171343Y-12451143D02*
X14185628Y-12465429D01*
X14171343Y-12479714D01*
X14157057Y-12465429D01*
X14171343Y-12451143D01*
X14171343Y-12479714D01*
X14371343Y-12179714D02*
X14399914Y-12179714D01*
X14428486Y-12194000D01*
X14442771Y-12208286D01*
X14457057Y-12236857D01*
X14471343Y-12294000D01*
X14471343Y-12365429D01*
X14457057Y-12422571D01*
X14442771Y-12451143D01*
X14428486Y-12465429D01*
X14399914Y-12479714D01*
X14371343Y-12479714D01*
X14342771Y-12465429D01*
X14328486Y-12451143D01*
X14314200Y-12422571D01*
X14299914Y-12365429D01*
X14299914Y-12294000D01*
X14314200Y-12236857D01*
X14328486Y-12208286D01*
X14342771Y-12194000D01*
X14371343Y-12179714D01*
X14657057Y-12179714D02*
X14685628Y-12179714D01*
X14714200Y-12194000D01*
X14728486Y-12208286D01*
X14742771Y-12236857D01*
X14757057Y-12294000D01*
X14757057Y-12365429D01*
X14742771Y-12422571D01*
X14728486Y-12451143D01*
X14714200Y-12465429D01*
X14685628Y-12479714D01*
X14657057Y-12479714D01*
X14628486Y-12465429D01*
X14614200Y-12451143D01*
X14599914Y-12422571D01*
X14585628Y-12365429D01*
X14585628Y-12294000D01*
X14599914Y-12236857D01*
X14614200Y-12208286D01*
X14628486Y-12194000D01*
X14657057Y-12179714D01*
X14885628Y-12479714D02*
X14885628Y-12279714D01*
X14885628Y-12308286D02*
X14899914Y-12294000D01*
X14928486Y-12279714D01*
X14971343Y-12279714D01*
X14999914Y-12294000D01*
X15014200Y-12322571D01*
X15014200Y-12479714D01*
X15014200Y-12322571D02*
X15028486Y-12294000D01*
X15057057Y-12279714D01*
X15099914Y-12279714D01*
X15128486Y-12294000D01*
X15142771Y-12322571D01*
X15142771Y-12479714D01*
X15285628Y-12479714D02*
X15285628Y-12279714D01*
X15285628Y-12308286D02*
X15299914Y-12294000D01*
X15328486Y-12279714D01*
X15371343Y-12279714D01*
X15399914Y-12294000D01*
X15414200Y-12322571D01*
X15414200Y-12479714D01*
X15414200Y-12322571D02*
X15428486Y-12294000D01*
X15457057Y-12279714D01*
X15499914Y-12279714D01*
X15528486Y-12294000D01*
X15542771Y-12322571D01*
X15542771Y-12479714D01*
X16128486Y-12165429D02*
X15871343Y-12551143D01*
X16514200Y-12179714D02*
X16542771Y-12179714D01*
X16571343Y-12194000D01*
X16585628Y-12208286D01*
X16599914Y-12236857D01*
X16614200Y-12294000D01*
X16614200Y-12365429D01*
X16599914Y-12422571D01*
X16585628Y-12451143D01*
X16571343Y-12465429D01*
X16542771Y-12479714D01*
X16514200Y-12479714D01*
X16485628Y-12465429D01*
X16471343Y-12451143D01*
X16457057Y-12422571D01*
X16442771Y-12365429D01*
X16442771Y-12294000D01*
X16457057Y-12236857D01*
X16471343Y-12208286D01*
X16485628Y-12194000D01*
X16514200Y-12179714D01*
X16742771Y-12451143D02*
X16757057Y-12465429D01*
X16742771Y-12479714D01*
X16728486Y-12465429D01*
X16742771Y-12451143D01*
X16742771Y-12479714D01*
X16942771Y-12179714D02*
X16971343Y-12179714D01*
X16999914Y-12194000D01*
X17014200Y-12208286D01*
X17028486Y-12236857D01*
X17042771Y-12294000D01*
X17042771Y-12365429D01*
X17028486Y-12422571D01*
X17014200Y-12451143D01*
X16999914Y-12465429D01*
X16971343Y-12479714D01*
X16942771Y-12479714D01*
X16914200Y-12465429D01*
X16899914Y-12451143D01*
X16885628Y-12422571D01*
X16871343Y-12365429D01*
X16871343Y-12294000D01*
X16885628Y-12236857D01*
X16899914Y-12208286D01*
X16914200Y-12194000D01*
X16942771Y-12179714D01*
X17142771Y-12179714D02*
X17328486Y-12179714D01*
X17228486Y-12294000D01*
X17271343Y-12294000D01*
X17299914Y-12308286D01*
X17314200Y-12322571D01*
X17328486Y-12351143D01*
X17328486Y-12422571D01*
X17314200Y-12451143D01*
X17299914Y-12465429D01*
X17271343Y-12479714D01*
X17185628Y-12479714D01*
X17157057Y-12465429D01*
X17142771Y-12451143D01*
X17471343Y-12479714D02*
X17528486Y-12479714D01*
X17557057Y-12465429D01*
X17571343Y-12451143D01*
X17599914Y-12408286D01*
X17614200Y-12351143D01*
X17614200Y-12236857D01*
X17599914Y-12208286D01*
X17585628Y-12194000D01*
X17557057Y-12179714D01*
X17499914Y-12179714D01*
X17471343Y-12194000D01*
X17457057Y-12208286D01*
X17442771Y-12236857D01*
X17442771Y-12308286D01*
X17457057Y-12336857D01*
X17471343Y-12351143D01*
X17499914Y-12365429D01*
X17557057Y-12365429D01*
X17585628Y-12351143D01*
X17599914Y-12336857D01*
X17614200Y-12308286D01*
X17728486Y-12179714D02*
X17728486Y-12236857D01*
X17842771Y-12179714D02*
X17842771Y-12236857D01*
X18285628Y-12594000D02*
X18271343Y-12579714D01*
X18242771Y-12536857D01*
X18228486Y-12508286D01*
X18214200Y-12465429D01*
X18199914Y-12394000D01*
X18199914Y-12336857D01*
X18214200Y-12265429D01*
X18228486Y-12222571D01*
X18242771Y-12194000D01*
X18271343Y-12151143D01*
X18285628Y-12136857D01*
X18528486Y-12179714D02*
X18471343Y-12179714D01*
X18442771Y-12194000D01*
X18428486Y-12208286D01*
X18399914Y-12251143D01*
X18385628Y-12308286D01*
X18385628Y-12422571D01*
X18399914Y-12451143D01*
X18414200Y-12465429D01*
X18442771Y-12479714D01*
X18499914Y-12479714D01*
X18528486Y-12465429D01*
X18542771Y-12451143D01*
X18557057Y-12422571D01*
X18557057Y-12351143D01*
X18542771Y-12322571D01*
X18528486Y-12308286D01*
X18499914Y-12294000D01*
X18442771Y-12294000D01*
X18414200Y-12308286D01*
X18399914Y-12322571D01*
X18385628Y-12351143D01*
X18914200Y-12479714D02*
X18914200Y-12179714D01*
X19042771Y-12479714D02*
X19042771Y-12322571D01*
X19028486Y-12294000D01*
X18999914Y-12279714D01*
X18957057Y-12279714D01*
X18928486Y-12294000D01*
X18914200Y-12308286D01*
X19228486Y-12479714D02*
X19199914Y-12465429D01*
X19185628Y-12451143D01*
X19171343Y-12422571D01*
X19171343Y-12336857D01*
X19185628Y-12308286D01*
X19199914Y-12294000D01*
X19228486Y-12279714D01*
X19271343Y-12279714D01*
X19299914Y-12294000D01*
X19314200Y-12308286D01*
X19328486Y-12336857D01*
X19328486Y-12422571D01*
X19314200Y-12451143D01*
X19299914Y-12465429D01*
X19271343Y-12479714D01*
X19228486Y-12479714D01*
X19499914Y-12479714D02*
X19471343Y-12465429D01*
X19457057Y-12436857D01*
X19457057Y-12179714D01*
X19728486Y-12465429D02*
X19699914Y-12479714D01*
X19642771Y-12479714D01*
X19614200Y-12465429D01*
X19599914Y-12436857D01*
X19599914Y-12322571D01*
X19614200Y-12294000D01*
X19642771Y-12279714D01*
X19699914Y-12279714D01*
X19728486Y-12294000D01*
X19742771Y-12322571D01*
X19742771Y-12351143D01*
X19599914Y-12379714D01*
X19857057Y-12465429D02*
X19885628Y-12479714D01*
X19942771Y-12479714D01*
X19971343Y-12465429D01*
X19985628Y-12436857D01*
X19985628Y-12422571D01*
X19971343Y-12394000D01*
X19942771Y-12379714D01*
X19899914Y-12379714D01*
X19871343Y-12365429D01*
X19857057Y-12336857D01*
X19857057Y-12322571D01*
X19871343Y-12294000D01*
X19899914Y-12279714D01*
X19942771Y-12279714D01*
X19971343Y-12294000D01*
X20085628Y-12594000D02*
X20099914Y-12579714D01*
X20128486Y-12536857D01*
X20142771Y-12508286D01*
X20157057Y-12465429D01*
X20171343Y-12394000D01*
X20171343Y-12336857D01*
X20157057Y-12265429D01*
X20142771Y-12222571D01*
X20128486Y-12194000D01*
X20099914Y-12151143D01*
X20085628Y-12136857D01*
M02*
