%TF.GenerationSoftware,KiCad,Pcbnew,(5.1.6)-1*%
%TF.CreationDate,2022-09-13T14:07:30-04:00*%
%TF.ProjectId,soft-power-sw-simple,736f6674-2d70-46f7-9765-722d73772d73,rev?*%
%TF.SameCoordinates,Original*%
%TF.FileFunction,Soldermask,Top*%
%TF.FilePolarity,Negative*%
%FSLAX46Y46*%
G04 Gerber Fmt 4.6, Leading zero omitted, Abs format (unit mm)*
G04 Created by KiCad (PCBNEW (5.1.6)-1) date 2022-09-13 14:07:30*
%MOMM*%
%LPD*%
G01*
G04 APERTURE LIST*
%ADD10R,1.800000X1.800000*%
%ADD11O,1.800000X1.800000*%
%ADD12R,1.625000X0.800000*%
G04 APERTURE END LIST*
%TO.C,C1*%
G36*
G01*
X144750262Y-103876000D02*
X143793738Y-103876000D01*
G75*
G02*
X143522000Y-103604262I0J271738D01*
G01*
X143522000Y-102897738D01*
G75*
G02*
X143793738Y-102626000I271738J0D01*
G01*
X144750262Y-102626000D01*
G75*
G02*
X145022000Y-102897738I0J-271738D01*
G01*
X145022000Y-103604262D01*
G75*
G02*
X144750262Y-103876000I-271738J0D01*
G01*
G37*
G36*
G01*
X144750262Y-101826000D02*
X143793738Y-101826000D01*
G75*
G02*
X143522000Y-101554262I0J271738D01*
G01*
X143522000Y-100847738D01*
G75*
G02*
X143793738Y-100576000I271738J0D01*
G01*
X144750262Y-100576000D01*
G75*
G02*
X145022000Y-100847738I0J-271738D01*
G01*
X145022000Y-101554262D01*
G75*
G02*
X144750262Y-101826000I-271738J0D01*
G01*
G37*
%TD*%
D10*
%TO.C,J1*%
X137922000Y-101727000D03*
D11*
X137922000Y-99187000D03*
%TD*%
%TO.C,J2*%
X143002000Y-106934000D03*
D10*
X145542000Y-106934000D03*
%TD*%
%TO.C,J3*%
X150622000Y-101600000D03*
D11*
X150622000Y-99060000D03*
%TD*%
D12*
%TO.C,Q1*%
X141560000Y-95377000D03*
X141560000Y-96647000D03*
X141560000Y-97917000D03*
X141560000Y-99187000D03*
X146984000Y-99187000D03*
X146984000Y-97917000D03*
X146984000Y-96647000D03*
X146984000Y-95377000D03*
%TD*%
%TO.C,R1*%
G36*
G01*
X142613000Y-93823262D02*
X142613000Y-92866738D01*
G75*
G02*
X142884738Y-92595000I271738J0D01*
G01*
X143591262Y-92595000D01*
G75*
G02*
X143863000Y-92866738I0J-271738D01*
G01*
X143863000Y-93823262D01*
G75*
G02*
X143591262Y-94095000I-271738J0D01*
G01*
X142884738Y-94095000D01*
G75*
G02*
X142613000Y-93823262I0J271738D01*
G01*
G37*
G36*
G01*
X144663000Y-93823262D02*
X144663000Y-92866738D01*
G75*
G02*
X144934738Y-92595000I271738J0D01*
G01*
X145641262Y-92595000D01*
G75*
G02*
X145913000Y-92866738I0J-271738D01*
G01*
X145913000Y-93823262D01*
G75*
G02*
X145641262Y-94095000I-271738J0D01*
G01*
X144934738Y-94095000D01*
G75*
G02*
X144663000Y-93823262I0J271738D01*
G01*
G37*
%TD*%
%TO.C,R2*%
G36*
G01*
X140491738Y-102644000D02*
X141448262Y-102644000D01*
G75*
G02*
X141720000Y-102915738I0J-271738D01*
G01*
X141720000Y-103622262D01*
G75*
G02*
X141448262Y-103894000I-271738J0D01*
G01*
X140491738Y-103894000D01*
G75*
G02*
X140220000Y-103622262I0J271738D01*
G01*
X140220000Y-102915738D01*
G75*
G02*
X140491738Y-102644000I271738J0D01*
G01*
G37*
G36*
G01*
X140491738Y-100594000D02*
X141448262Y-100594000D01*
G75*
G02*
X141720000Y-100865738I0J-271738D01*
G01*
X141720000Y-101572262D01*
G75*
G02*
X141448262Y-101844000I-271738J0D01*
G01*
X140491738Y-101844000D01*
G75*
G02*
X140220000Y-101572262I0J271738D01*
G01*
X140220000Y-100865738D01*
G75*
G02*
X140491738Y-100594000I271738J0D01*
G01*
G37*
%TD*%
%TO.C,R3*%
G36*
G01*
X147095738Y-100576000D02*
X148052262Y-100576000D01*
G75*
G02*
X148324000Y-100847738I0J-271738D01*
G01*
X148324000Y-101554262D01*
G75*
G02*
X148052262Y-101826000I-271738J0D01*
G01*
X147095738Y-101826000D01*
G75*
G02*
X146824000Y-101554262I0J271738D01*
G01*
X146824000Y-100847738D01*
G75*
G02*
X147095738Y-100576000I271738J0D01*
G01*
G37*
G36*
G01*
X147095738Y-102626000D02*
X148052262Y-102626000D01*
G75*
G02*
X148324000Y-102897738I0J-271738D01*
G01*
X148324000Y-103604262D01*
G75*
G02*
X148052262Y-103876000I-271738J0D01*
G01*
X147095738Y-103876000D01*
G75*
G02*
X146824000Y-103604262I0J271738D01*
G01*
X146824000Y-102897738D01*
G75*
G02*
X147095738Y-102626000I271738J0D01*
G01*
G37*
%TD*%
M02*
