%FSLAX45Y45*%
G04 Gerber Fmt 4.5, Leading zero omitted, Abs format (unit mm)*
G04 Created by KiCad (PCBNEW (5.1.6)-1) date 2022-09-13 14:07:32*
%MOMM*%
%LPD*%
G01*
G04 APERTURE LIST*
%TA.AperFunction,Profile*%
%ADD10C,0.050000*%
%TD*%
%ADD11C,0.200000*%
%ADD12C,0.300000*%
G04 APERTURE END LIST*
D10*
X15252700Y-9639300D02*
X14490700Y-9080500D01*
X15252700Y-10426700D02*
X15252700Y-9639300D01*
X14744700Y-10985500D02*
X15252700Y-10426700D01*
X14122400Y-10985500D02*
X14744700Y-10985500D01*
X13601700Y-10439400D02*
X14122400Y-10985500D01*
X13601700Y-9639300D02*
X13601700Y-10439400D01*
X14338300Y-9080500D02*
X13601700Y-9639300D01*
X14338300Y-9080500D02*
X14490700Y-9080500D01*
D11*
D12*
X13885628Y-11453714D02*
X13885628Y-11153714D01*
X13957057Y-11153714D01*
X13999914Y-11168000D01*
X14028486Y-11196571D01*
X14042771Y-11225143D01*
X14057057Y-11282286D01*
X14057057Y-11325143D01*
X14042771Y-11382286D01*
X14028486Y-11410857D01*
X13999914Y-11439429D01*
X13957057Y-11453714D01*
X13885628Y-11453714D01*
X14185628Y-11453714D02*
X14185628Y-11253714D01*
X14185628Y-11310857D02*
X14199914Y-11282286D01*
X14214200Y-11268000D01*
X14242771Y-11253714D01*
X14271343Y-11253714D01*
X14371343Y-11453714D02*
X14371343Y-11253714D01*
X14371343Y-11153714D02*
X14357057Y-11168000D01*
X14371343Y-11182286D01*
X14385628Y-11168000D01*
X14371343Y-11153714D01*
X14371343Y-11182286D01*
X14557057Y-11453714D02*
X14528486Y-11439429D01*
X14514200Y-11410857D01*
X14514200Y-11153714D01*
X14714200Y-11453714D02*
X14685628Y-11439429D01*
X14671343Y-11410857D01*
X14671343Y-11153714D01*
X15057057Y-11453714D02*
X15057057Y-11153714D01*
X15157057Y-11368000D01*
X15257057Y-11153714D01*
X15257057Y-11453714D01*
X15528486Y-11453714D02*
X15528486Y-11296571D01*
X15514200Y-11268000D01*
X15485628Y-11253714D01*
X15428486Y-11253714D01*
X15399914Y-11268000D01*
X15528486Y-11439429D02*
X15499914Y-11453714D01*
X15428486Y-11453714D01*
X15399914Y-11439429D01*
X15385628Y-11410857D01*
X15385628Y-11382286D01*
X15399914Y-11353714D01*
X15428486Y-11339429D01*
X15499914Y-11339429D01*
X15528486Y-11325143D01*
X15671343Y-11253714D02*
X15671343Y-11553714D01*
X15671343Y-11268000D02*
X15699914Y-11253714D01*
X15757057Y-11253714D01*
X15785628Y-11268000D01*
X15799914Y-11282286D01*
X15814200Y-11310857D01*
X15814200Y-11396571D01*
X15799914Y-11425143D01*
X15785628Y-11439429D01*
X15757057Y-11453714D01*
X15699914Y-11453714D01*
X15671343Y-11439429D01*
X15942771Y-11425143D02*
X15957057Y-11439429D01*
X15942771Y-11453714D01*
X15928486Y-11439429D01*
X15942771Y-11425143D01*
X15942771Y-11453714D01*
X15942771Y-11268000D02*
X15957057Y-11282286D01*
X15942771Y-11296571D01*
X15928486Y-11282286D01*
X15942771Y-11268000D01*
X15942771Y-11296571D01*
M02*
