%TF.GenerationSoftware,KiCad,Pcbnew,(5.1.6)-1*%
%TF.CreationDate,2022-09-13T14:07:30-04:00*%
%TF.ProjectId,soft-power-sw-simple,736f6674-2d70-46f7-9765-722d73772d73,rev?*%
%TF.SameCoordinates,Original*%
%TF.FileFunction,Legend,Bot*%
%TF.FilePolarity,Positive*%
%FSLAX46Y46*%
G04 Gerber Fmt 4.6, Leading zero omitted, Abs format (unit mm)*
G04 Created by KiCad (PCBNEW (5.1.6)-1) date 2022-09-13 14:07:30*
%MOMM*%
%LPD*%
G01*
G04 APERTURE LIST*
%ADD10C,0.150000*%
%ADD11C,0.010000*%
G04 APERTURE END LIST*
D10*
X145867238Y-109418380D02*
X145867238Y-108751714D01*
X145867238Y-108942190D02*
X145819619Y-108846952D01*
X145772000Y-108799333D01*
X145676761Y-108751714D01*
X145581523Y-108751714D01*
X144867238Y-109370761D02*
X144962476Y-109418380D01*
X145152952Y-109418380D01*
X145248190Y-109370761D01*
X145295809Y-109275523D01*
X145295809Y-108894571D01*
X145248190Y-108799333D01*
X145152952Y-108751714D01*
X144962476Y-108751714D01*
X144867238Y-108799333D01*
X144819619Y-108894571D01*
X144819619Y-108989809D01*
X145295809Y-109085047D01*
X144486285Y-108751714D02*
X144248190Y-109418380D01*
X144010095Y-108751714D01*
X143629142Y-109323142D02*
X143581523Y-109370761D01*
X143629142Y-109418380D01*
X143676761Y-109370761D01*
X143629142Y-109323142D01*
X143629142Y-109418380D01*
X142962476Y-108418380D02*
X142867238Y-108418380D01*
X142772000Y-108466000D01*
X142724380Y-108513619D01*
X142676761Y-108608857D01*
X142629142Y-108799333D01*
X142629142Y-109037428D01*
X142676761Y-109227904D01*
X142724380Y-109323142D01*
X142772000Y-109370761D01*
X142867238Y-109418380D01*
X142962476Y-109418380D01*
X143057714Y-109370761D01*
X143105333Y-109323142D01*
X143152952Y-109227904D01*
X143200571Y-109037428D01*
X143200571Y-108799333D01*
X143152952Y-108608857D01*
X143105333Y-108513619D01*
X143057714Y-108466000D01*
X142962476Y-108418380D01*
X149105333Y-104687714D02*
X148914857Y-105354380D01*
X148724380Y-104878190D01*
X148533904Y-105354380D01*
X148343428Y-104687714D01*
X147962476Y-105354380D02*
X147962476Y-104687714D01*
X147962476Y-104354380D02*
X148010095Y-104402000D01*
X147962476Y-104449619D01*
X147914857Y-104402000D01*
X147962476Y-104354380D01*
X147962476Y-104449619D01*
X147486285Y-105354380D02*
X147486285Y-104687714D01*
X147486285Y-104878190D02*
X147438666Y-104782952D01*
X147391047Y-104735333D01*
X147295809Y-104687714D01*
X147200571Y-104687714D01*
X146486285Y-105306761D02*
X146581523Y-105354380D01*
X146772000Y-105354380D01*
X146867238Y-105306761D01*
X146914857Y-105211523D01*
X146914857Y-104830571D01*
X146867238Y-104735333D01*
X146772000Y-104687714D01*
X146581523Y-104687714D01*
X146486285Y-104735333D01*
X146438666Y-104830571D01*
X146438666Y-104925809D01*
X146914857Y-105021047D01*
X146152952Y-104687714D02*
X145772000Y-104687714D01*
X146010095Y-104354380D02*
X146010095Y-105211523D01*
X145962476Y-105306761D01*
X145867238Y-105354380D01*
X145772000Y-105354380D01*
X145010095Y-105354380D02*
X145010095Y-104830571D01*
X145057714Y-104735333D01*
X145152952Y-104687714D01*
X145343428Y-104687714D01*
X145438666Y-104735333D01*
X145010095Y-105306761D02*
X145105333Y-105354380D01*
X145343428Y-105354380D01*
X145438666Y-105306761D01*
X145486285Y-105211523D01*
X145486285Y-105116285D01*
X145438666Y-105021047D01*
X145343428Y-104973428D01*
X145105333Y-104973428D01*
X145010095Y-104925809D01*
X144533904Y-104687714D02*
X144533904Y-105687714D01*
X144533904Y-104735333D02*
X144438666Y-104687714D01*
X144248190Y-104687714D01*
X144152952Y-104735333D01*
X144105333Y-104782952D01*
X144057714Y-104878190D01*
X144057714Y-105163904D01*
X144105333Y-105259142D01*
X144152952Y-105306761D01*
X144248190Y-105354380D01*
X144438666Y-105354380D01*
X144533904Y-105306761D01*
X142914857Y-104449619D02*
X142867238Y-104402000D01*
X142772000Y-104354380D01*
X142533904Y-104354380D01*
X142438666Y-104402000D01*
X142391047Y-104449619D01*
X142343428Y-104544857D01*
X142343428Y-104640095D01*
X142391047Y-104782952D01*
X142962476Y-105354380D01*
X142343428Y-105354380D01*
X141724380Y-104354380D02*
X141629142Y-104354380D01*
X141533904Y-104402000D01*
X141486285Y-104449619D01*
X141438666Y-104544857D01*
X141391047Y-104735333D01*
X141391047Y-104973428D01*
X141438666Y-105163904D01*
X141486285Y-105259142D01*
X141533904Y-105306761D01*
X141629142Y-105354380D01*
X141724380Y-105354380D01*
X141819619Y-105306761D01*
X141867238Y-105259142D01*
X141914857Y-105163904D01*
X141962476Y-104973428D01*
X141962476Y-104735333D01*
X141914857Y-104544857D01*
X141867238Y-104449619D01*
X141819619Y-104402000D01*
X141724380Y-104354380D01*
X141010095Y-104449619D02*
X140962476Y-104402000D01*
X140867238Y-104354380D01*
X140629142Y-104354380D01*
X140533904Y-104402000D01*
X140486285Y-104449619D01*
X140438666Y-104544857D01*
X140438666Y-104640095D01*
X140486285Y-104782952D01*
X141057714Y-105354380D01*
X140438666Y-105354380D01*
X140057714Y-104449619D02*
X140010095Y-104402000D01*
X139914857Y-104354380D01*
X139676761Y-104354380D01*
X139581523Y-104402000D01*
X139533904Y-104449619D01*
X139486285Y-104544857D01*
X139486285Y-104640095D01*
X139533904Y-104782952D01*
X140105333Y-105354380D01*
X139486285Y-105354380D01*
X145764047Y-99211761D02*
X145621190Y-99259380D01*
X145383095Y-99259380D01*
X145287857Y-99211761D01*
X145240238Y-99164142D01*
X145192619Y-99068904D01*
X145192619Y-98973666D01*
X145240238Y-98878428D01*
X145287857Y-98830809D01*
X145383095Y-98783190D01*
X145573571Y-98735571D01*
X145668809Y-98687952D01*
X145716428Y-98640333D01*
X145764047Y-98545095D01*
X145764047Y-98449857D01*
X145716428Y-98354619D01*
X145668809Y-98307000D01*
X145573571Y-98259380D01*
X145335476Y-98259380D01*
X145192619Y-98307000D01*
X144573571Y-98259380D02*
X144383095Y-98259380D01*
X144287857Y-98307000D01*
X144192619Y-98402238D01*
X144145000Y-98592714D01*
X144145000Y-98926047D01*
X144192619Y-99116523D01*
X144287857Y-99211761D01*
X144383095Y-99259380D01*
X144573571Y-99259380D01*
X144668809Y-99211761D01*
X144764047Y-99116523D01*
X144811666Y-98926047D01*
X144811666Y-98592714D01*
X144764047Y-98402238D01*
X144668809Y-98307000D01*
X144573571Y-98259380D01*
X143383095Y-98735571D02*
X143716428Y-98735571D01*
X143716428Y-99259380D02*
X143716428Y-98259380D01*
X143240238Y-98259380D01*
X143002142Y-98259380D02*
X142430714Y-98259380D01*
X142716428Y-99259380D02*
X142716428Y-98259380D01*
X146454523Y-100909380D02*
X146454523Y-99909380D01*
X146073571Y-99909380D01*
X145978333Y-99957000D01*
X145930714Y-100004619D01*
X145883095Y-100099857D01*
X145883095Y-100242714D01*
X145930714Y-100337952D01*
X145978333Y-100385571D01*
X146073571Y-100433190D01*
X146454523Y-100433190D01*
X145264047Y-99909380D02*
X145073571Y-99909380D01*
X144978333Y-99957000D01*
X144883095Y-100052238D01*
X144835476Y-100242714D01*
X144835476Y-100576047D01*
X144883095Y-100766523D01*
X144978333Y-100861761D01*
X145073571Y-100909380D01*
X145264047Y-100909380D01*
X145359285Y-100861761D01*
X145454523Y-100766523D01*
X145502142Y-100576047D01*
X145502142Y-100242714D01*
X145454523Y-100052238D01*
X145359285Y-99957000D01*
X145264047Y-99909380D01*
X144502142Y-99909380D02*
X144264047Y-100909380D01*
X144073571Y-100195095D01*
X143883095Y-100909380D01*
X143645000Y-99909380D01*
X143264047Y-100385571D02*
X142930714Y-100385571D01*
X142787857Y-100909380D02*
X143264047Y-100909380D01*
X143264047Y-99909380D01*
X142787857Y-99909380D01*
X141787857Y-100909380D02*
X142121190Y-100433190D01*
X142359285Y-100909380D02*
X142359285Y-99909380D01*
X141978333Y-99909380D01*
X141883095Y-99957000D01*
X141835476Y-100004619D01*
X141787857Y-100099857D01*
X141787857Y-100242714D01*
X141835476Y-100337952D01*
X141883095Y-100385571D01*
X141978333Y-100433190D01*
X142359285Y-100433190D01*
X146645000Y-102511761D02*
X146502142Y-102559380D01*
X146264047Y-102559380D01*
X146168809Y-102511761D01*
X146121190Y-102464142D01*
X146073571Y-102368904D01*
X146073571Y-102273666D01*
X146121190Y-102178428D01*
X146168809Y-102130809D01*
X146264047Y-102083190D01*
X146454523Y-102035571D01*
X146549761Y-101987952D01*
X146597380Y-101940333D01*
X146645000Y-101845095D01*
X146645000Y-101749857D01*
X146597380Y-101654619D01*
X146549761Y-101607000D01*
X146454523Y-101559380D01*
X146216428Y-101559380D01*
X146073571Y-101607000D01*
X145740238Y-101559380D02*
X145502142Y-102559380D01*
X145311666Y-101845095D01*
X145121190Y-102559380D01*
X144883095Y-101559380D01*
X144502142Y-102559380D02*
X144502142Y-101559380D01*
X144168809Y-101559380D02*
X143597380Y-101559380D01*
X143883095Y-102559380D02*
X143883095Y-101559380D01*
X142692619Y-102464142D02*
X142740238Y-102511761D01*
X142883095Y-102559380D01*
X142978333Y-102559380D01*
X143121190Y-102511761D01*
X143216428Y-102416523D01*
X143264047Y-102321285D01*
X143311666Y-102130809D01*
X143311666Y-101987952D01*
X143264047Y-101797476D01*
X143216428Y-101702238D01*
X143121190Y-101607000D01*
X142978333Y-101559380D01*
X142883095Y-101559380D01*
X142740238Y-101607000D01*
X142692619Y-101654619D01*
X142264047Y-102559380D02*
X142264047Y-101559380D01*
X142264047Y-102035571D02*
X141692619Y-102035571D01*
X141692619Y-102559380D02*
X141692619Y-101559380D01*
D11*
%TO.C,REF\u002A\u002A*%
G36*
X146545256Y-96153918D02*
G01*
X146489799Y-96181568D01*
X146440852Y-96232480D01*
X146427371Y-96251338D01*
X146412686Y-96276015D01*
X146403158Y-96302816D01*
X146397707Y-96338587D01*
X146395253Y-96390169D01*
X146394714Y-96458267D01*
X146397148Y-96551588D01*
X146405606Y-96621657D01*
X146421826Y-96673931D01*
X146447546Y-96713869D01*
X146484503Y-96746929D01*
X146487218Y-96748886D01*
X146523640Y-96768908D01*
X146567498Y-96778815D01*
X146623276Y-96781257D01*
X146713952Y-96781257D01*
X146713990Y-96869283D01*
X146714834Y-96918308D01*
X146719976Y-96947065D01*
X146733413Y-96964311D01*
X146759142Y-96978808D01*
X146765321Y-96981769D01*
X146794236Y-96995648D01*
X146816624Y-97004414D01*
X146833271Y-97005171D01*
X146844964Y-96995023D01*
X146852490Y-96971073D01*
X146856634Y-96930426D01*
X146858185Y-96870186D01*
X146857929Y-96787455D01*
X146856651Y-96679339D01*
X146856252Y-96647000D01*
X146854815Y-96535524D01*
X146853528Y-96462603D01*
X146714029Y-96462603D01*
X146713245Y-96524499D01*
X146709760Y-96564997D01*
X146701876Y-96591708D01*
X146687895Y-96612244D01*
X146678403Y-96622260D01*
X146639596Y-96651567D01*
X146605237Y-96653952D01*
X146569784Y-96629750D01*
X146568886Y-96628857D01*
X146554461Y-96610153D01*
X146545687Y-96584732D01*
X146541261Y-96545584D01*
X146539882Y-96485697D01*
X146539857Y-96472430D01*
X146543188Y-96389901D01*
X146554031Y-96332691D01*
X146573660Y-96297766D01*
X146603350Y-96282094D01*
X146620509Y-96280514D01*
X146661234Y-96287926D01*
X146689168Y-96312330D01*
X146705983Y-96356980D01*
X146713350Y-96425130D01*
X146714029Y-96462603D01*
X146853528Y-96462603D01*
X146853292Y-96449245D01*
X146851323Y-96384333D01*
X146848550Y-96336958D01*
X146844612Y-96303290D01*
X146839151Y-96279498D01*
X146831808Y-96261753D01*
X146822223Y-96246224D01*
X146818113Y-96240381D01*
X146763595Y-96185185D01*
X146694664Y-96153890D01*
X146614928Y-96145165D01*
X146545256Y-96153918D01*
G37*
X146545256Y-96153918D02*
X146489799Y-96181568D01*
X146440852Y-96232480D01*
X146427371Y-96251338D01*
X146412686Y-96276015D01*
X146403158Y-96302816D01*
X146397707Y-96338587D01*
X146395253Y-96390169D01*
X146394714Y-96458267D01*
X146397148Y-96551588D01*
X146405606Y-96621657D01*
X146421826Y-96673931D01*
X146447546Y-96713869D01*
X146484503Y-96746929D01*
X146487218Y-96748886D01*
X146523640Y-96768908D01*
X146567498Y-96778815D01*
X146623276Y-96781257D01*
X146713952Y-96781257D01*
X146713990Y-96869283D01*
X146714834Y-96918308D01*
X146719976Y-96947065D01*
X146733413Y-96964311D01*
X146759142Y-96978808D01*
X146765321Y-96981769D01*
X146794236Y-96995648D01*
X146816624Y-97004414D01*
X146833271Y-97005171D01*
X146844964Y-96995023D01*
X146852490Y-96971073D01*
X146856634Y-96930426D01*
X146858185Y-96870186D01*
X146857929Y-96787455D01*
X146856651Y-96679339D01*
X146856252Y-96647000D01*
X146854815Y-96535524D01*
X146853528Y-96462603D01*
X146714029Y-96462603D01*
X146713245Y-96524499D01*
X146709760Y-96564997D01*
X146701876Y-96591708D01*
X146687895Y-96612244D01*
X146678403Y-96622260D01*
X146639596Y-96651567D01*
X146605237Y-96653952D01*
X146569784Y-96629750D01*
X146568886Y-96628857D01*
X146554461Y-96610153D01*
X146545687Y-96584732D01*
X146541261Y-96545584D01*
X146539882Y-96485697D01*
X146539857Y-96472430D01*
X146543188Y-96389901D01*
X146554031Y-96332691D01*
X146573660Y-96297766D01*
X146603350Y-96282094D01*
X146620509Y-96280514D01*
X146661234Y-96287926D01*
X146689168Y-96312330D01*
X146705983Y-96356980D01*
X146713350Y-96425130D01*
X146714029Y-96462603D01*
X146853528Y-96462603D01*
X146853292Y-96449245D01*
X146851323Y-96384333D01*
X146848550Y-96336958D01*
X146844612Y-96303290D01*
X146839151Y-96279498D01*
X146831808Y-96261753D01*
X146822223Y-96246224D01*
X146818113Y-96240381D01*
X146763595Y-96185185D01*
X146694664Y-96153890D01*
X146614928Y-96145165D01*
X146545256Y-96153918D01*
G36*
X145428907Y-96161780D02*
G01*
X145382328Y-96188723D01*
X145349943Y-96215466D01*
X145326258Y-96243484D01*
X145309941Y-96277748D01*
X145299661Y-96323227D01*
X145294086Y-96384892D01*
X145291884Y-96467711D01*
X145291629Y-96527246D01*
X145291629Y-96746391D01*
X145353314Y-96774044D01*
X145415000Y-96801697D01*
X145422257Y-96561670D01*
X145425256Y-96472028D01*
X145428402Y-96406962D01*
X145432299Y-96362026D01*
X145437553Y-96332770D01*
X145444769Y-96314748D01*
X145454550Y-96303511D01*
X145457688Y-96301079D01*
X145505239Y-96282083D01*
X145553303Y-96289600D01*
X145581914Y-96309543D01*
X145593553Y-96323675D01*
X145601609Y-96342220D01*
X145606729Y-96370334D01*
X145609559Y-96413173D01*
X145610744Y-96475895D01*
X145610943Y-96541261D01*
X145610982Y-96623268D01*
X145612386Y-96681316D01*
X145617086Y-96720465D01*
X145627013Y-96745780D01*
X145644097Y-96762323D01*
X145670268Y-96775156D01*
X145705225Y-96788491D01*
X145743404Y-96803007D01*
X145738859Y-96545389D01*
X145737029Y-96452519D01*
X145734888Y-96383889D01*
X145731819Y-96334711D01*
X145727206Y-96300198D01*
X145720432Y-96275562D01*
X145710881Y-96256016D01*
X145699366Y-96238770D01*
X145643810Y-96183680D01*
X145576020Y-96151822D01*
X145502287Y-96144191D01*
X145428907Y-96161780D01*
G37*
X145428907Y-96161780D02*
X145382328Y-96188723D01*
X145349943Y-96215466D01*
X145326258Y-96243484D01*
X145309941Y-96277748D01*
X145299661Y-96323227D01*
X145294086Y-96384892D01*
X145291884Y-96467711D01*
X145291629Y-96527246D01*
X145291629Y-96746391D01*
X145353314Y-96774044D01*
X145415000Y-96801697D01*
X145422257Y-96561670D01*
X145425256Y-96472028D01*
X145428402Y-96406962D01*
X145432299Y-96362026D01*
X145437553Y-96332770D01*
X145444769Y-96314748D01*
X145454550Y-96303511D01*
X145457688Y-96301079D01*
X145505239Y-96282083D01*
X145553303Y-96289600D01*
X145581914Y-96309543D01*
X145593553Y-96323675D01*
X145601609Y-96342220D01*
X145606729Y-96370334D01*
X145609559Y-96413173D01*
X145610744Y-96475895D01*
X145610943Y-96541261D01*
X145610982Y-96623268D01*
X145612386Y-96681316D01*
X145617086Y-96720465D01*
X145627013Y-96745780D01*
X145644097Y-96762323D01*
X145670268Y-96775156D01*
X145705225Y-96788491D01*
X145743404Y-96803007D01*
X145738859Y-96545389D01*
X145737029Y-96452519D01*
X145734888Y-96383889D01*
X145731819Y-96334711D01*
X145727206Y-96300198D01*
X145720432Y-96275562D01*
X145710881Y-96256016D01*
X145699366Y-96238770D01*
X145643810Y-96183680D01*
X145576020Y-96151822D01*
X145502287Y-96144191D01*
X145428907Y-96161780D01*
G36*
X147103885Y-96155962D02*
G01*
X147035855Y-96191733D01*
X146985649Y-96249301D01*
X146967815Y-96286312D01*
X146953937Y-96341882D01*
X146946833Y-96412096D01*
X146946160Y-96488727D01*
X146951573Y-96563552D01*
X146962730Y-96628342D01*
X146979286Y-96674873D01*
X146984374Y-96682887D01*
X147044645Y-96742707D01*
X147116231Y-96778535D01*
X147193908Y-96789020D01*
X147272452Y-96772810D01*
X147294311Y-96763092D01*
X147336878Y-96733143D01*
X147374237Y-96693433D01*
X147377768Y-96688397D01*
X147392119Y-96664124D01*
X147401606Y-96638178D01*
X147407210Y-96604022D01*
X147409914Y-96555119D01*
X147410701Y-96484935D01*
X147410714Y-96469200D01*
X147410678Y-96464192D01*
X147265571Y-96464192D01*
X147264727Y-96530430D01*
X147261404Y-96574386D01*
X147254417Y-96602779D01*
X147242584Y-96622325D01*
X147236543Y-96628857D01*
X147201814Y-96653680D01*
X147168097Y-96652548D01*
X147134005Y-96631016D01*
X147113671Y-96608029D01*
X147101629Y-96574478D01*
X147094866Y-96521569D01*
X147094402Y-96515399D01*
X147093248Y-96419513D01*
X147105312Y-96348299D01*
X147130430Y-96302194D01*
X147168440Y-96281635D01*
X147182008Y-96280514D01*
X147217636Y-96286152D01*
X147242006Y-96305686D01*
X147256907Y-96343042D01*
X147264125Y-96402150D01*
X147265571Y-96464192D01*
X147410678Y-96464192D01*
X147410174Y-96394413D01*
X147407904Y-96342159D01*
X147402932Y-96305949D01*
X147394287Y-96279299D01*
X147380995Y-96255722D01*
X147378057Y-96251338D01*
X147328687Y-96192249D01*
X147274891Y-96157947D01*
X147209398Y-96144331D01*
X147187158Y-96143665D01*
X147103885Y-96155962D01*
G37*
X147103885Y-96155962D02*
X147035855Y-96191733D01*
X146985649Y-96249301D01*
X146967815Y-96286312D01*
X146953937Y-96341882D01*
X146946833Y-96412096D01*
X146946160Y-96488727D01*
X146951573Y-96563552D01*
X146962730Y-96628342D01*
X146979286Y-96674873D01*
X146984374Y-96682887D01*
X147044645Y-96742707D01*
X147116231Y-96778535D01*
X147193908Y-96789020D01*
X147272452Y-96772810D01*
X147294311Y-96763092D01*
X147336878Y-96733143D01*
X147374237Y-96693433D01*
X147377768Y-96688397D01*
X147392119Y-96664124D01*
X147401606Y-96638178D01*
X147407210Y-96604022D01*
X147409914Y-96555119D01*
X147410701Y-96484935D01*
X147410714Y-96469200D01*
X147410678Y-96464192D01*
X147265571Y-96464192D01*
X147264727Y-96530430D01*
X147261404Y-96574386D01*
X147254417Y-96602779D01*
X147242584Y-96622325D01*
X147236543Y-96628857D01*
X147201814Y-96653680D01*
X147168097Y-96652548D01*
X147134005Y-96631016D01*
X147113671Y-96608029D01*
X147101629Y-96574478D01*
X147094866Y-96521569D01*
X147094402Y-96515399D01*
X147093248Y-96419513D01*
X147105312Y-96348299D01*
X147130430Y-96302194D01*
X147168440Y-96281635D01*
X147182008Y-96280514D01*
X147217636Y-96286152D01*
X147242006Y-96305686D01*
X147256907Y-96343042D01*
X147264125Y-96402150D01*
X147265571Y-96464192D01*
X147410678Y-96464192D01*
X147410174Y-96394413D01*
X147407904Y-96342159D01*
X147402932Y-96305949D01*
X147394287Y-96279299D01*
X147380995Y-96255722D01*
X147378057Y-96251338D01*
X147328687Y-96192249D01*
X147274891Y-96157947D01*
X147209398Y-96144331D01*
X147187158Y-96143665D01*
X147103885Y-96155962D01*
G36*
X145976697Y-96165239D02*
G01*
X145919473Y-96203735D01*
X145875251Y-96259335D01*
X145848833Y-96330086D01*
X145843490Y-96382162D01*
X145844097Y-96403893D01*
X145849178Y-96420531D01*
X145863145Y-96435437D01*
X145890411Y-96451973D01*
X145935388Y-96473498D01*
X146002489Y-96503374D01*
X146002829Y-96503524D01*
X146064593Y-96531813D01*
X146115241Y-96556933D01*
X146149596Y-96576179D01*
X146162482Y-96586848D01*
X146162486Y-96586934D01*
X146151128Y-96610166D01*
X146124569Y-96635774D01*
X146094077Y-96654221D01*
X146078630Y-96657886D01*
X146036485Y-96645212D01*
X146000192Y-96613471D01*
X145982483Y-96578572D01*
X145965448Y-96552845D01*
X145932078Y-96523546D01*
X145892851Y-96498235D01*
X145858244Y-96484471D01*
X145851007Y-96483714D01*
X145842861Y-96496160D01*
X145842370Y-96527972D01*
X145848357Y-96570866D01*
X145859643Y-96616558D01*
X145875050Y-96656761D01*
X145875829Y-96658322D01*
X145922196Y-96723062D01*
X145982289Y-96767097D01*
X146050535Y-96788711D01*
X146121362Y-96786185D01*
X146189196Y-96757804D01*
X146192212Y-96755808D01*
X146245573Y-96707448D01*
X146280660Y-96644352D01*
X146300078Y-96561387D01*
X146302684Y-96538078D01*
X146307299Y-96428055D01*
X146301767Y-96376748D01*
X146162486Y-96376748D01*
X146160676Y-96408753D01*
X146150778Y-96418093D01*
X146126102Y-96411105D01*
X146087205Y-96394587D01*
X146043725Y-96373881D01*
X146042644Y-96373333D01*
X146005791Y-96353949D01*
X145991000Y-96341013D01*
X145994647Y-96327451D01*
X146010005Y-96309632D01*
X146049077Y-96283845D01*
X146091154Y-96281950D01*
X146128897Y-96300717D01*
X146154966Y-96336915D01*
X146162486Y-96376748D01*
X146301767Y-96376748D01*
X146297806Y-96340027D01*
X146273450Y-96270212D01*
X146239544Y-96221302D01*
X146178347Y-96171878D01*
X146110937Y-96147359D01*
X146042120Y-96145797D01*
X145976697Y-96165239D01*
G37*
X145976697Y-96165239D02*
X145919473Y-96203735D01*
X145875251Y-96259335D01*
X145848833Y-96330086D01*
X145843490Y-96382162D01*
X145844097Y-96403893D01*
X145849178Y-96420531D01*
X145863145Y-96435437D01*
X145890411Y-96451973D01*
X145935388Y-96473498D01*
X146002489Y-96503374D01*
X146002829Y-96503524D01*
X146064593Y-96531813D01*
X146115241Y-96556933D01*
X146149596Y-96576179D01*
X146162482Y-96586848D01*
X146162486Y-96586934D01*
X146151128Y-96610166D01*
X146124569Y-96635774D01*
X146094077Y-96654221D01*
X146078630Y-96657886D01*
X146036485Y-96645212D01*
X146000192Y-96613471D01*
X145982483Y-96578572D01*
X145965448Y-96552845D01*
X145932078Y-96523546D01*
X145892851Y-96498235D01*
X145858244Y-96484471D01*
X145851007Y-96483714D01*
X145842861Y-96496160D01*
X145842370Y-96527972D01*
X145848357Y-96570866D01*
X145859643Y-96616558D01*
X145875050Y-96656761D01*
X145875829Y-96658322D01*
X145922196Y-96723062D01*
X145982289Y-96767097D01*
X146050535Y-96788711D01*
X146121362Y-96786185D01*
X146189196Y-96757804D01*
X146192212Y-96755808D01*
X146245573Y-96707448D01*
X146280660Y-96644352D01*
X146300078Y-96561387D01*
X146302684Y-96538078D01*
X146307299Y-96428055D01*
X146301767Y-96376748D01*
X146162486Y-96376748D01*
X146160676Y-96408753D01*
X146150778Y-96418093D01*
X146126102Y-96411105D01*
X146087205Y-96394587D01*
X146043725Y-96373881D01*
X146042644Y-96373333D01*
X146005791Y-96353949D01*
X145991000Y-96341013D01*
X145994647Y-96327451D01*
X146010005Y-96309632D01*
X146049077Y-96283845D01*
X146091154Y-96281950D01*
X146128897Y-96300717D01*
X146154966Y-96336915D01*
X146162486Y-96376748D01*
X146301767Y-96376748D01*
X146297806Y-96340027D01*
X146273450Y-96270212D01*
X146239544Y-96221302D01*
X146178347Y-96171878D01*
X146110937Y-96147359D01*
X146042120Y-96145797D01*
X145976697Y-96165239D01*
G36*
X144769114Y-96085289D02*
G01*
X144764861Y-96144613D01*
X144759975Y-96179572D01*
X144753205Y-96194820D01*
X144743298Y-96195015D01*
X144740086Y-96193195D01*
X144697356Y-96180015D01*
X144641773Y-96180785D01*
X144585263Y-96194333D01*
X144549918Y-96211861D01*
X144513679Y-96239861D01*
X144487187Y-96271549D01*
X144469001Y-96311813D01*
X144457678Y-96365543D01*
X144451778Y-96437626D01*
X144449857Y-96532951D01*
X144449823Y-96551237D01*
X144449800Y-96756646D01*
X144495509Y-96772580D01*
X144527973Y-96783420D01*
X144545785Y-96788468D01*
X144546309Y-96788514D01*
X144548063Y-96774828D01*
X144549556Y-96737076D01*
X144550674Y-96680224D01*
X144551303Y-96609234D01*
X144551400Y-96566073D01*
X144551602Y-96480973D01*
X144552642Y-96419981D01*
X144555169Y-96378177D01*
X144559836Y-96350642D01*
X144567293Y-96332456D01*
X144578189Y-96318698D01*
X144584993Y-96312073D01*
X144631728Y-96285375D01*
X144682728Y-96283375D01*
X144728999Y-96305955D01*
X144737556Y-96314107D01*
X144750107Y-96329436D01*
X144758812Y-96347618D01*
X144764369Y-96373909D01*
X144767474Y-96413562D01*
X144768824Y-96471832D01*
X144769114Y-96552173D01*
X144769114Y-96756646D01*
X144814823Y-96772580D01*
X144847287Y-96783420D01*
X144865099Y-96788468D01*
X144865623Y-96788514D01*
X144866963Y-96774623D01*
X144868172Y-96735439D01*
X144869199Y-96674700D01*
X144869998Y-96596141D01*
X144870519Y-96503498D01*
X144870714Y-96400509D01*
X144870714Y-96003342D01*
X144823543Y-95983444D01*
X144776371Y-95963547D01*
X144769114Y-96085289D01*
G37*
X144769114Y-96085289D02*
X144764861Y-96144613D01*
X144759975Y-96179572D01*
X144753205Y-96194820D01*
X144743298Y-96195015D01*
X144740086Y-96193195D01*
X144697356Y-96180015D01*
X144641773Y-96180785D01*
X144585263Y-96194333D01*
X144549918Y-96211861D01*
X144513679Y-96239861D01*
X144487187Y-96271549D01*
X144469001Y-96311813D01*
X144457678Y-96365543D01*
X144451778Y-96437626D01*
X144449857Y-96532951D01*
X144449823Y-96551237D01*
X144449800Y-96756646D01*
X144495509Y-96772580D01*
X144527973Y-96783420D01*
X144545785Y-96788468D01*
X144546309Y-96788514D01*
X144548063Y-96774828D01*
X144549556Y-96737076D01*
X144550674Y-96680224D01*
X144551303Y-96609234D01*
X144551400Y-96566073D01*
X144551602Y-96480973D01*
X144552642Y-96419981D01*
X144555169Y-96378177D01*
X144559836Y-96350642D01*
X144567293Y-96332456D01*
X144578189Y-96318698D01*
X144584993Y-96312073D01*
X144631728Y-96285375D01*
X144682728Y-96283375D01*
X144728999Y-96305955D01*
X144737556Y-96314107D01*
X144750107Y-96329436D01*
X144758812Y-96347618D01*
X144764369Y-96373909D01*
X144767474Y-96413562D01*
X144768824Y-96471832D01*
X144769114Y-96552173D01*
X144769114Y-96756646D01*
X144814823Y-96772580D01*
X144847287Y-96783420D01*
X144865099Y-96788468D01*
X144865623Y-96788514D01*
X144866963Y-96774623D01*
X144868172Y-96735439D01*
X144869199Y-96674700D01*
X144869998Y-96596141D01*
X144870519Y-96503498D01*
X144870714Y-96400509D01*
X144870714Y-96003342D01*
X144823543Y-95983444D01*
X144776371Y-95963547D01*
X144769114Y-96085289D01*
G36*
X144105256Y-96184968D02*
G01*
X144048384Y-96206087D01*
X144047733Y-96206493D01*
X144012560Y-96232380D01*
X143986593Y-96262633D01*
X143968330Y-96302058D01*
X143956268Y-96355462D01*
X143948904Y-96427651D01*
X143944736Y-96523432D01*
X143944371Y-96537078D01*
X143939124Y-96742842D01*
X143983284Y-96765678D01*
X144015237Y-96781110D01*
X144034530Y-96788423D01*
X144035422Y-96788514D01*
X144038761Y-96775022D01*
X144041413Y-96738626D01*
X144043044Y-96685452D01*
X144043400Y-96642393D01*
X144043408Y-96572641D01*
X144046597Y-96528837D01*
X144057712Y-96507944D01*
X144081499Y-96506925D01*
X144122704Y-96522741D01*
X144184914Y-96551815D01*
X144230659Y-96575963D01*
X144254187Y-96596913D01*
X144261104Y-96619747D01*
X144261114Y-96620877D01*
X144249701Y-96660212D01*
X144215908Y-96681462D01*
X144164191Y-96684539D01*
X144126939Y-96684006D01*
X144107297Y-96694735D01*
X144095048Y-96720505D01*
X144087998Y-96753337D01*
X144098158Y-96771966D01*
X144101983Y-96774632D01*
X144137999Y-96785340D01*
X144188434Y-96786856D01*
X144240374Y-96779759D01*
X144277178Y-96766788D01*
X144328062Y-96723585D01*
X144356986Y-96663446D01*
X144362714Y-96616462D01*
X144358343Y-96574082D01*
X144342525Y-96539488D01*
X144311203Y-96508763D01*
X144260322Y-96477990D01*
X144185824Y-96443252D01*
X144181286Y-96441288D01*
X144114179Y-96410287D01*
X144072768Y-96384862D01*
X144055019Y-96362014D01*
X144058893Y-96338745D01*
X144082357Y-96312056D01*
X144089373Y-96305914D01*
X144136370Y-96282100D01*
X144185067Y-96283103D01*
X144227478Y-96306451D01*
X144255616Y-96349675D01*
X144258231Y-96358160D01*
X144283692Y-96399308D01*
X144315999Y-96419128D01*
X144362714Y-96438770D01*
X144362714Y-96387950D01*
X144348504Y-96314082D01*
X144306325Y-96246327D01*
X144284376Y-96223661D01*
X144234483Y-96194569D01*
X144171033Y-96181400D01*
X144105256Y-96184968D01*
G37*
X144105256Y-96184968D02*
X144048384Y-96206087D01*
X144047733Y-96206493D01*
X144012560Y-96232380D01*
X143986593Y-96262633D01*
X143968330Y-96302058D01*
X143956268Y-96355462D01*
X143948904Y-96427651D01*
X143944736Y-96523432D01*
X143944371Y-96537078D01*
X143939124Y-96742842D01*
X143983284Y-96765678D01*
X144015237Y-96781110D01*
X144034530Y-96788423D01*
X144035422Y-96788514D01*
X144038761Y-96775022D01*
X144041413Y-96738626D01*
X144043044Y-96685452D01*
X144043400Y-96642393D01*
X144043408Y-96572641D01*
X144046597Y-96528837D01*
X144057712Y-96507944D01*
X144081499Y-96506925D01*
X144122704Y-96522741D01*
X144184914Y-96551815D01*
X144230659Y-96575963D01*
X144254187Y-96596913D01*
X144261104Y-96619747D01*
X144261114Y-96620877D01*
X144249701Y-96660212D01*
X144215908Y-96681462D01*
X144164191Y-96684539D01*
X144126939Y-96684006D01*
X144107297Y-96694735D01*
X144095048Y-96720505D01*
X144087998Y-96753337D01*
X144098158Y-96771966D01*
X144101983Y-96774632D01*
X144137999Y-96785340D01*
X144188434Y-96786856D01*
X144240374Y-96779759D01*
X144277178Y-96766788D01*
X144328062Y-96723585D01*
X144356986Y-96663446D01*
X144362714Y-96616462D01*
X144358343Y-96574082D01*
X144342525Y-96539488D01*
X144311203Y-96508763D01*
X144260322Y-96477990D01*
X144185824Y-96443252D01*
X144181286Y-96441288D01*
X144114179Y-96410287D01*
X144072768Y-96384862D01*
X144055019Y-96362014D01*
X144058893Y-96338745D01*
X144082357Y-96312056D01*
X144089373Y-96305914D01*
X144136370Y-96282100D01*
X144185067Y-96283103D01*
X144227478Y-96306451D01*
X144255616Y-96349675D01*
X144258231Y-96358160D01*
X144283692Y-96399308D01*
X144315999Y-96419128D01*
X144362714Y-96438770D01*
X144362714Y-96387950D01*
X144348504Y-96314082D01*
X144306325Y-96246327D01*
X144284376Y-96223661D01*
X144234483Y-96194569D01*
X144171033Y-96181400D01*
X144105256Y-96184968D01*
G36*
X143615074Y-96183755D02*
G01*
X143549142Y-96208084D01*
X143495727Y-96251117D01*
X143474836Y-96281409D01*
X143452061Y-96336994D01*
X143452534Y-96377186D01*
X143476438Y-96404217D01*
X143485283Y-96408813D01*
X143523470Y-96423144D01*
X143542972Y-96419472D01*
X143549578Y-96395407D01*
X143549914Y-96382114D01*
X143562008Y-96333210D01*
X143593529Y-96298999D01*
X143637341Y-96282476D01*
X143686305Y-96286634D01*
X143726106Y-96308227D01*
X143739550Y-96320544D01*
X143749079Y-96335487D01*
X143755515Y-96358075D01*
X143759683Y-96393328D01*
X143762403Y-96446266D01*
X143764498Y-96521907D01*
X143765040Y-96545857D01*
X143767019Y-96627790D01*
X143769269Y-96685455D01*
X143772643Y-96723608D01*
X143777994Y-96747004D01*
X143786176Y-96760398D01*
X143798041Y-96768545D01*
X143805638Y-96772144D01*
X143837898Y-96784452D01*
X143856889Y-96788514D01*
X143863164Y-96774948D01*
X143866994Y-96733934D01*
X143868400Y-96664999D01*
X143867402Y-96567669D01*
X143867092Y-96552657D01*
X143864899Y-96463859D01*
X143862307Y-96399019D01*
X143858618Y-96353067D01*
X143853136Y-96320935D01*
X143845165Y-96297553D01*
X143834007Y-96277852D01*
X143828170Y-96269410D01*
X143794704Y-96232057D01*
X143757273Y-96203003D01*
X143752691Y-96200467D01*
X143685574Y-96180443D01*
X143615074Y-96183755D01*
G37*
X143615074Y-96183755D02*
X143549142Y-96208084D01*
X143495727Y-96251117D01*
X143474836Y-96281409D01*
X143452061Y-96336994D01*
X143452534Y-96377186D01*
X143476438Y-96404217D01*
X143485283Y-96408813D01*
X143523470Y-96423144D01*
X143542972Y-96419472D01*
X143549578Y-96395407D01*
X143549914Y-96382114D01*
X143562008Y-96333210D01*
X143593529Y-96298999D01*
X143637341Y-96282476D01*
X143686305Y-96286634D01*
X143726106Y-96308227D01*
X143739550Y-96320544D01*
X143749079Y-96335487D01*
X143755515Y-96358075D01*
X143759683Y-96393328D01*
X143762403Y-96446266D01*
X143764498Y-96521907D01*
X143765040Y-96545857D01*
X143767019Y-96627790D01*
X143769269Y-96685455D01*
X143772643Y-96723608D01*
X143777994Y-96747004D01*
X143786176Y-96760398D01*
X143798041Y-96768545D01*
X143805638Y-96772144D01*
X143837898Y-96784452D01*
X143856889Y-96788514D01*
X143863164Y-96774948D01*
X143866994Y-96733934D01*
X143868400Y-96664999D01*
X143867402Y-96567669D01*
X143867092Y-96552657D01*
X143864899Y-96463859D01*
X143862307Y-96399019D01*
X143858618Y-96353067D01*
X143853136Y-96320935D01*
X143845165Y-96297553D01*
X143834007Y-96277852D01*
X143828170Y-96269410D01*
X143794704Y-96232057D01*
X143757273Y-96203003D01*
X143752691Y-96200467D01*
X143685574Y-96180443D01*
X143615074Y-96183755D01*
G36*
X142954883Y-96299358D02*
G01*
X142955067Y-96407837D01*
X142955781Y-96491287D01*
X142957325Y-96553704D01*
X142959999Y-96599085D01*
X142964106Y-96631429D01*
X142969945Y-96654733D01*
X142977818Y-96672995D01*
X142983779Y-96683418D01*
X143033145Y-96739945D01*
X143095736Y-96775377D01*
X143164987Y-96788090D01*
X143234332Y-96776463D01*
X143275625Y-96755568D01*
X143318975Y-96719422D01*
X143348519Y-96675276D01*
X143366345Y-96617462D01*
X143374537Y-96540313D01*
X143375698Y-96483714D01*
X143375542Y-96479647D01*
X143274143Y-96479647D01*
X143273524Y-96544550D01*
X143270686Y-96587514D01*
X143264160Y-96615622D01*
X143252477Y-96635953D01*
X143238517Y-96651288D01*
X143191635Y-96680890D01*
X143141299Y-96683419D01*
X143093724Y-96658705D01*
X143090021Y-96655356D01*
X143074217Y-96637935D01*
X143064307Y-96617209D01*
X143058942Y-96586362D01*
X143056772Y-96538577D01*
X143056429Y-96485748D01*
X143057173Y-96419381D01*
X143060252Y-96375106D01*
X143066939Y-96346009D01*
X143078504Y-96325173D01*
X143087987Y-96314107D01*
X143132040Y-96286198D01*
X143182776Y-96282843D01*
X143231204Y-96304159D01*
X143240550Y-96312073D01*
X143256460Y-96329647D01*
X143266390Y-96350587D01*
X143271722Y-96381782D01*
X143273837Y-96430122D01*
X143274143Y-96479647D01*
X143375542Y-96479647D01*
X143372190Y-96392568D01*
X143360274Y-96324086D01*
X143337865Y-96272600D01*
X143302876Y-96232443D01*
X143275625Y-96211861D01*
X143226093Y-96189625D01*
X143168684Y-96179304D01*
X143115318Y-96182067D01*
X143085457Y-96193212D01*
X143073739Y-96196383D01*
X143065963Y-96184557D01*
X143060535Y-96152866D01*
X143056429Y-96104593D01*
X143051933Y-96050829D01*
X143045687Y-96018482D01*
X143034324Y-95999985D01*
X143014472Y-95987770D01*
X143002000Y-95982362D01*
X142954829Y-95962601D01*
X142954883Y-96299358D01*
G37*
X142954883Y-96299358D02*
X142955067Y-96407837D01*
X142955781Y-96491287D01*
X142957325Y-96553704D01*
X142959999Y-96599085D01*
X142964106Y-96631429D01*
X142969945Y-96654733D01*
X142977818Y-96672995D01*
X142983779Y-96683418D01*
X143033145Y-96739945D01*
X143095736Y-96775377D01*
X143164987Y-96788090D01*
X143234332Y-96776463D01*
X143275625Y-96755568D01*
X143318975Y-96719422D01*
X143348519Y-96675276D01*
X143366345Y-96617462D01*
X143374537Y-96540313D01*
X143375698Y-96483714D01*
X143375542Y-96479647D01*
X143274143Y-96479647D01*
X143273524Y-96544550D01*
X143270686Y-96587514D01*
X143264160Y-96615622D01*
X143252477Y-96635953D01*
X143238517Y-96651288D01*
X143191635Y-96680890D01*
X143141299Y-96683419D01*
X143093724Y-96658705D01*
X143090021Y-96655356D01*
X143074217Y-96637935D01*
X143064307Y-96617209D01*
X143058942Y-96586362D01*
X143056772Y-96538577D01*
X143056429Y-96485748D01*
X143057173Y-96419381D01*
X143060252Y-96375106D01*
X143066939Y-96346009D01*
X143078504Y-96325173D01*
X143087987Y-96314107D01*
X143132040Y-96286198D01*
X143182776Y-96282843D01*
X143231204Y-96304159D01*
X143240550Y-96312073D01*
X143256460Y-96329647D01*
X143266390Y-96350587D01*
X143271722Y-96381782D01*
X143273837Y-96430122D01*
X143274143Y-96479647D01*
X143375542Y-96479647D01*
X143372190Y-96392568D01*
X143360274Y-96324086D01*
X143337865Y-96272600D01*
X143302876Y-96232443D01*
X143275625Y-96211861D01*
X143226093Y-96189625D01*
X143168684Y-96179304D01*
X143115318Y-96182067D01*
X143085457Y-96193212D01*
X143073739Y-96196383D01*
X143065963Y-96184557D01*
X143060535Y-96152866D01*
X143056429Y-96104593D01*
X143051933Y-96050829D01*
X143045687Y-96018482D01*
X143034324Y-95999985D01*
X143014472Y-95987770D01*
X143002000Y-95982362D01*
X142954829Y-95962601D01*
X142954883Y-96299358D01*
G36*
X142365167Y-96192663D02*
G01*
X142362952Y-96230850D01*
X142361216Y-96288886D01*
X142360101Y-96362180D01*
X142359743Y-96439055D01*
X142359743Y-96699196D01*
X142405674Y-96745127D01*
X142437325Y-96773429D01*
X142465110Y-96784893D01*
X142503085Y-96784168D01*
X142518160Y-96782321D01*
X142565274Y-96776948D01*
X142604244Y-96773869D01*
X142613743Y-96773585D01*
X142645767Y-96775445D01*
X142691568Y-96780114D01*
X142709326Y-96782321D01*
X142752943Y-96785735D01*
X142782255Y-96778320D01*
X142811320Y-96755427D01*
X142821812Y-96745127D01*
X142867743Y-96699196D01*
X142867743Y-96212602D01*
X142830774Y-96195758D01*
X142798941Y-96183282D01*
X142780317Y-96178914D01*
X142775542Y-96192718D01*
X142771079Y-96231286D01*
X142767225Y-96290356D01*
X142764278Y-96365663D01*
X142762857Y-96429286D01*
X142758886Y-96679657D01*
X142724241Y-96684556D01*
X142692732Y-96681131D01*
X142677292Y-96670041D01*
X142672977Y-96649308D01*
X142669292Y-96605145D01*
X142666531Y-96543146D01*
X142664988Y-96468909D01*
X142664765Y-96430706D01*
X142664543Y-96210783D01*
X142618834Y-96194849D01*
X142586482Y-96184015D01*
X142568885Y-96178962D01*
X142568377Y-96178914D01*
X142566612Y-96192648D01*
X142564671Y-96230730D01*
X142562718Y-96288482D01*
X142560916Y-96361227D01*
X142559657Y-96429286D01*
X142555686Y-96679657D01*
X142468600Y-96679657D01*
X142464604Y-96451240D01*
X142460608Y-96222822D01*
X142418153Y-96200868D01*
X142386808Y-96185793D01*
X142368256Y-96178951D01*
X142367721Y-96178914D01*
X142365167Y-96192663D01*
G37*
X142365167Y-96192663D02*
X142362952Y-96230850D01*
X142361216Y-96288886D01*
X142360101Y-96362180D01*
X142359743Y-96439055D01*
X142359743Y-96699196D01*
X142405674Y-96745127D01*
X142437325Y-96773429D01*
X142465110Y-96784893D01*
X142503085Y-96784168D01*
X142518160Y-96782321D01*
X142565274Y-96776948D01*
X142604244Y-96773869D01*
X142613743Y-96773585D01*
X142645767Y-96775445D01*
X142691568Y-96780114D01*
X142709326Y-96782321D01*
X142752943Y-96785735D01*
X142782255Y-96778320D01*
X142811320Y-96755427D01*
X142821812Y-96745127D01*
X142867743Y-96699196D01*
X142867743Y-96212602D01*
X142830774Y-96195758D01*
X142798941Y-96183282D01*
X142780317Y-96178914D01*
X142775542Y-96192718D01*
X142771079Y-96231286D01*
X142767225Y-96290356D01*
X142764278Y-96365663D01*
X142762857Y-96429286D01*
X142758886Y-96679657D01*
X142724241Y-96684556D01*
X142692732Y-96681131D01*
X142677292Y-96670041D01*
X142672977Y-96649308D01*
X142669292Y-96605145D01*
X142666531Y-96543146D01*
X142664988Y-96468909D01*
X142664765Y-96430706D01*
X142664543Y-96210783D01*
X142618834Y-96194849D01*
X142586482Y-96184015D01*
X142568885Y-96178962D01*
X142568377Y-96178914D01*
X142566612Y-96192648D01*
X142564671Y-96230730D01*
X142562718Y-96288482D01*
X142560916Y-96361227D01*
X142559657Y-96429286D01*
X142555686Y-96679657D01*
X142468600Y-96679657D01*
X142464604Y-96451240D01*
X142460608Y-96222822D01*
X142418153Y-96200868D01*
X142386808Y-96185793D01*
X142368256Y-96178951D01*
X142367721Y-96178914D01*
X142365167Y-96192663D01*
G36*
X142000124Y-96190335D02*
G01*
X141958333Y-96209344D01*
X141925531Y-96232378D01*
X141901497Y-96258133D01*
X141884903Y-96291358D01*
X141874423Y-96336800D01*
X141868729Y-96399207D01*
X141866493Y-96483327D01*
X141866257Y-96538721D01*
X141866257Y-96754826D01*
X141903226Y-96771670D01*
X141932344Y-96783981D01*
X141946769Y-96788514D01*
X141949528Y-96775025D01*
X141951718Y-96738653D01*
X141953058Y-96685542D01*
X141953343Y-96643372D01*
X141954566Y-96582447D01*
X141957864Y-96534115D01*
X141962679Y-96504518D01*
X141966504Y-96498229D01*
X141992217Y-96504652D01*
X142032582Y-96521125D01*
X142079321Y-96543458D01*
X142124155Y-96567457D01*
X142158807Y-96588930D01*
X142174998Y-96603685D01*
X142175062Y-96603845D01*
X142173670Y-96631152D01*
X142161182Y-96657219D01*
X142139257Y-96678392D01*
X142107257Y-96685474D01*
X142079908Y-96684649D01*
X142041174Y-96684042D01*
X142020842Y-96693116D01*
X142008631Y-96717092D01*
X142007091Y-96721613D01*
X142001797Y-96755806D01*
X142015953Y-96776568D01*
X142052852Y-96786462D01*
X142092711Y-96788292D01*
X142164438Y-96774727D01*
X142201568Y-96755355D01*
X142247424Y-96709845D01*
X142271744Y-96653983D01*
X142273927Y-96594957D01*
X142253371Y-96539953D01*
X142222451Y-96505486D01*
X142191580Y-96486189D01*
X142143058Y-96461759D01*
X142086515Y-96436985D01*
X142077090Y-96433199D01*
X142014981Y-96405791D01*
X141979178Y-96381634D01*
X141967663Y-96357619D01*
X141978420Y-96330635D01*
X141996886Y-96309543D01*
X142040531Y-96283572D01*
X142088554Y-96281624D01*
X142132594Y-96301637D01*
X142164291Y-96341551D01*
X142168451Y-96351848D01*
X142192673Y-96389724D01*
X142228035Y-96417842D01*
X142272657Y-96440917D01*
X142272657Y-96375485D01*
X142270031Y-96335506D01*
X142258770Y-96303997D01*
X142233801Y-96270378D01*
X142209831Y-96244484D01*
X142172559Y-96207817D01*
X142143599Y-96188121D01*
X142112495Y-96180220D01*
X142077287Y-96178914D01*
X142000124Y-96190335D01*
G37*
X142000124Y-96190335D02*
X141958333Y-96209344D01*
X141925531Y-96232378D01*
X141901497Y-96258133D01*
X141884903Y-96291358D01*
X141874423Y-96336800D01*
X141868729Y-96399207D01*
X141866493Y-96483327D01*
X141866257Y-96538721D01*
X141866257Y-96754826D01*
X141903226Y-96771670D01*
X141932344Y-96783981D01*
X141946769Y-96788514D01*
X141949528Y-96775025D01*
X141951718Y-96738653D01*
X141953058Y-96685542D01*
X141953343Y-96643372D01*
X141954566Y-96582447D01*
X141957864Y-96534115D01*
X141962679Y-96504518D01*
X141966504Y-96498229D01*
X141992217Y-96504652D01*
X142032582Y-96521125D01*
X142079321Y-96543458D01*
X142124155Y-96567457D01*
X142158807Y-96588930D01*
X142174998Y-96603685D01*
X142175062Y-96603845D01*
X142173670Y-96631152D01*
X142161182Y-96657219D01*
X142139257Y-96678392D01*
X142107257Y-96685474D01*
X142079908Y-96684649D01*
X142041174Y-96684042D01*
X142020842Y-96693116D01*
X142008631Y-96717092D01*
X142007091Y-96721613D01*
X142001797Y-96755806D01*
X142015953Y-96776568D01*
X142052852Y-96786462D01*
X142092711Y-96788292D01*
X142164438Y-96774727D01*
X142201568Y-96755355D01*
X142247424Y-96709845D01*
X142271744Y-96653983D01*
X142273927Y-96594957D01*
X142253371Y-96539953D01*
X142222451Y-96505486D01*
X142191580Y-96486189D01*
X142143058Y-96461759D01*
X142086515Y-96436985D01*
X142077090Y-96433199D01*
X142014981Y-96405791D01*
X141979178Y-96381634D01*
X141967663Y-96357619D01*
X141978420Y-96330635D01*
X141996886Y-96309543D01*
X142040531Y-96283572D01*
X142088554Y-96281624D01*
X142132594Y-96301637D01*
X142164291Y-96341551D01*
X142168451Y-96351848D01*
X142192673Y-96389724D01*
X142228035Y-96417842D01*
X142272657Y-96440917D01*
X142272657Y-96375485D01*
X142270031Y-96335506D01*
X142258770Y-96303997D01*
X142233801Y-96270378D01*
X142209831Y-96244484D01*
X142172559Y-96207817D01*
X142143599Y-96188121D01*
X142112495Y-96180220D01*
X142077287Y-96178914D01*
X142000124Y-96190335D01*
G36*
X141492400Y-96192752D02*
G01*
X141475052Y-96200334D01*
X141433644Y-96233128D01*
X141398235Y-96280547D01*
X141376336Y-96331151D01*
X141372771Y-96356098D01*
X141384721Y-96390927D01*
X141410933Y-96409357D01*
X141439036Y-96420516D01*
X141451905Y-96422572D01*
X141458171Y-96407649D01*
X141470544Y-96375175D01*
X141475972Y-96360502D01*
X141506410Y-96309744D01*
X141550480Y-96284427D01*
X141606990Y-96285206D01*
X141611175Y-96286203D01*
X141641345Y-96300507D01*
X141663524Y-96328393D01*
X141678673Y-96373287D01*
X141687750Y-96438615D01*
X141691714Y-96527804D01*
X141692086Y-96575261D01*
X141692270Y-96650071D01*
X141693478Y-96701069D01*
X141696691Y-96733471D01*
X141702891Y-96752495D01*
X141713060Y-96763356D01*
X141728181Y-96771272D01*
X141729054Y-96771670D01*
X141758172Y-96783981D01*
X141772597Y-96788514D01*
X141774814Y-96774809D01*
X141776711Y-96736925D01*
X141778153Y-96679715D01*
X141779002Y-96608027D01*
X141779171Y-96555565D01*
X141778308Y-96454047D01*
X141774930Y-96377032D01*
X141767858Y-96320023D01*
X141755912Y-96278526D01*
X141737910Y-96248043D01*
X141712673Y-96224080D01*
X141687753Y-96207355D01*
X141627829Y-96185097D01*
X141558089Y-96180076D01*
X141492400Y-96192752D01*
G37*
X141492400Y-96192752D02*
X141475052Y-96200334D01*
X141433644Y-96233128D01*
X141398235Y-96280547D01*
X141376336Y-96331151D01*
X141372771Y-96356098D01*
X141384721Y-96390927D01*
X141410933Y-96409357D01*
X141439036Y-96420516D01*
X141451905Y-96422572D01*
X141458171Y-96407649D01*
X141470544Y-96375175D01*
X141475972Y-96360502D01*
X141506410Y-96309744D01*
X141550480Y-96284427D01*
X141606990Y-96285206D01*
X141611175Y-96286203D01*
X141641345Y-96300507D01*
X141663524Y-96328393D01*
X141678673Y-96373287D01*
X141687750Y-96438615D01*
X141691714Y-96527804D01*
X141692086Y-96575261D01*
X141692270Y-96650071D01*
X141693478Y-96701069D01*
X141696691Y-96733471D01*
X141702891Y-96752495D01*
X141713060Y-96763356D01*
X141728181Y-96771272D01*
X141729054Y-96771670D01*
X141758172Y-96783981D01*
X141772597Y-96788514D01*
X141774814Y-96774809D01*
X141776711Y-96736925D01*
X141778153Y-96679715D01*
X141779002Y-96608027D01*
X141779171Y-96555565D01*
X141778308Y-96454047D01*
X141774930Y-96377032D01*
X141767858Y-96320023D01*
X141755912Y-96278526D01*
X141737910Y-96248043D01*
X141712673Y-96224080D01*
X141687753Y-96207355D01*
X141627829Y-96185097D01*
X141558089Y-96180076D01*
X141492400Y-96192752D01*
G36*
X140991405Y-96200966D02*
G01*
X140933979Y-96238497D01*
X140906281Y-96272096D01*
X140884338Y-96333064D01*
X140882595Y-96381308D01*
X140886543Y-96445816D01*
X141035314Y-96510934D01*
X141107651Y-96544202D01*
X141154916Y-96570964D01*
X141179493Y-96594144D01*
X141183763Y-96616667D01*
X141170111Y-96641455D01*
X141155057Y-96657886D01*
X141111254Y-96684235D01*
X141063611Y-96686081D01*
X141019855Y-96665546D01*
X140987711Y-96624752D01*
X140981962Y-96610347D01*
X140954424Y-96565356D01*
X140922742Y-96546182D01*
X140879286Y-96529779D01*
X140879286Y-96591966D01*
X140883128Y-96634283D01*
X140898177Y-96669969D01*
X140929720Y-96710943D01*
X140934408Y-96716267D01*
X140969494Y-96752720D01*
X140999653Y-96772283D01*
X141037385Y-96781283D01*
X141068665Y-96784230D01*
X141124615Y-96784965D01*
X141164445Y-96775660D01*
X141189292Y-96761846D01*
X141228344Y-96731467D01*
X141255375Y-96698613D01*
X141272483Y-96657294D01*
X141281762Y-96601521D01*
X141285307Y-96525305D01*
X141285590Y-96486622D01*
X141284628Y-96440247D01*
X141196993Y-96440247D01*
X141195977Y-96465126D01*
X141193444Y-96469200D01*
X141176726Y-96463665D01*
X141140751Y-96449017D01*
X141092669Y-96428190D01*
X141082614Y-96423714D01*
X141021848Y-96392814D01*
X140988368Y-96365657D01*
X140981010Y-96340220D01*
X140998609Y-96314481D01*
X141013144Y-96303109D01*
X141065590Y-96280364D01*
X141114678Y-96284122D01*
X141155773Y-96311884D01*
X141184242Y-96361152D01*
X141193369Y-96400257D01*
X141196993Y-96440247D01*
X141284628Y-96440247D01*
X141283715Y-96396249D01*
X141276804Y-96329384D01*
X141263116Y-96280695D01*
X141240904Y-96244849D01*
X141208426Y-96216513D01*
X141194267Y-96207355D01*
X141129947Y-96183507D01*
X141059527Y-96182006D01*
X140991405Y-96200966D01*
G37*
X140991405Y-96200966D02*
X140933979Y-96238497D01*
X140906281Y-96272096D01*
X140884338Y-96333064D01*
X140882595Y-96381308D01*
X140886543Y-96445816D01*
X141035314Y-96510934D01*
X141107651Y-96544202D01*
X141154916Y-96570964D01*
X141179493Y-96594144D01*
X141183763Y-96616667D01*
X141170111Y-96641455D01*
X141155057Y-96657886D01*
X141111254Y-96684235D01*
X141063611Y-96686081D01*
X141019855Y-96665546D01*
X140987711Y-96624752D01*
X140981962Y-96610347D01*
X140954424Y-96565356D01*
X140922742Y-96546182D01*
X140879286Y-96529779D01*
X140879286Y-96591966D01*
X140883128Y-96634283D01*
X140898177Y-96669969D01*
X140929720Y-96710943D01*
X140934408Y-96716267D01*
X140969494Y-96752720D01*
X140999653Y-96772283D01*
X141037385Y-96781283D01*
X141068665Y-96784230D01*
X141124615Y-96784965D01*
X141164445Y-96775660D01*
X141189292Y-96761846D01*
X141228344Y-96731467D01*
X141255375Y-96698613D01*
X141272483Y-96657294D01*
X141281762Y-96601521D01*
X141285307Y-96525305D01*
X141285590Y-96486622D01*
X141284628Y-96440247D01*
X141196993Y-96440247D01*
X141195977Y-96465126D01*
X141193444Y-96469200D01*
X141176726Y-96463665D01*
X141140751Y-96449017D01*
X141092669Y-96428190D01*
X141082614Y-96423714D01*
X141021848Y-96392814D01*
X140988368Y-96365657D01*
X140981010Y-96340220D01*
X140998609Y-96314481D01*
X141013144Y-96303109D01*
X141065590Y-96280364D01*
X141114678Y-96284122D01*
X141155773Y-96311884D01*
X141184242Y-96361152D01*
X141193369Y-96400257D01*
X141196993Y-96440247D01*
X141284628Y-96440247D01*
X141283715Y-96396249D01*
X141276804Y-96329384D01*
X141263116Y-96280695D01*
X141240904Y-96244849D01*
X141208426Y-96216513D01*
X141194267Y-96207355D01*
X141129947Y-96183507D01*
X141059527Y-96182006D01*
X140991405Y-96200966D01*
G36*
X144041090Y-91476348D02*
G01*
X143962546Y-91476778D01*
X143905702Y-91477942D01*
X143866895Y-91480207D01*
X143842462Y-91483940D01*
X143828738Y-91489506D01*
X143822060Y-91497273D01*
X143818764Y-91507605D01*
X143818444Y-91508943D01*
X143813438Y-91533079D01*
X143804171Y-91580701D01*
X143791608Y-91646741D01*
X143776713Y-91726128D01*
X143760449Y-91813796D01*
X143759881Y-91816875D01*
X143743590Y-91902789D01*
X143728348Y-91978696D01*
X143715139Y-92040045D01*
X143704946Y-92082282D01*
X143698752Y-92100855D01*
X143698457Y-92101184D01*
X143680212Y-92110253D01*
X143642595Y-92125367D01*
X143593729Y-92143262D01*
X143593457Y-92143358D01*
X143531907Y-92166493D01*
X143459343Y-92195965D01*
X143390943Y-92225597D01*
X143387706Y-92227062D01*
X143276298Y-92277626D01*
X143029601Y-92109160D01*
X142953923Y-92057803D01*
X142885369Y-92011889D01*
X142827912Y-91974030D01*
X142785524Y-91946837D01*
X142762175Y-91932921D01*
X142759958Y-91931889D01*
X142742990Y-91936484D01*
X142711299Y-91958655D01*
X142663648Y-91999447D01*
X142598802Y-92059905D01*
X142532603Y-92124227D01*
X142468786Y-92187612D01*
X142411671Y-92245451D01*
X142364695Y-92294175D01*
X142331297Y-92330210D01*
X142314915Y-92349984D01*
X142314306Y-92351002D01*
X142312495Y-92364572D01*
X142319317Y-92386733D01*
X142336460Y-92420478D01*
X142365607Y-92468800D01*
X142408445Y-92534692D01*
X142465552Y-92619517D01*
X142516234Y-92694177D01*
X142561539Y-92761140D01*
X142598850Y-92816516D01*
X142625548Y-92856420D01*
X142639015Y-92876962D01*
X142639863Y-92878356D01*
X142638219Y-92898038D01*
X142625755Y-92936293D01*
X142604952Y-92985889D01*
X142597538Y-93001728D01*
X142565186Y-93072290D01*
X142530672Y-93152353D01*
X142502635Y-93221629D01*
X142482432Y-93273045D01*
X142466385Y-93312119D01*
X142457112Y-93332541D01*
X142455959Y-93334114D01*
X142438904Y-93336721D01*
X142398702Y-93343863D01*
X142340698Y-93354523D01*
X142270237Y-93367685D01*
X142192665Y-93382333D01*
X142113328Y-93397449D01*
X142037569Y-93412018D01*
X141970736Y-93425022D01*
X141918172Y-93435445D01*
X141885224Y-93442270D01*
X141877143Y-93444199D01*
X141868795Y-93448962D01*
X141862494Y-93459718D01*
X141857955Y-93480098D01*
X141854896Y-93513734D01*
X141853033Y-93564255D01*
X141852082Y-93635292D01*
X141851760Y-93730476D01*
X141851743Y-93769492D01*
X141851743Y-94086799D01*
X141927943Y-94101839D01*
X141970337Y-94109995D01*
X142033600Y-94121899D01*
X142110038Y-94136116D01*
X142191957Y-94151210D01*
X142214600Y-94155355D01*
X142290194Y-94170053D01*
X142356047Y-94184505D01*
X142406634Y-94197375D01*
X142436426Y-94207322D01*
X142441388Y-94210287D01*
X142453574Y-94231283D01*
X142471047Y-94271967D01*
X142490423Y-94324322D01*
X142494266Y-94335600D01*
X142519661Y-94405523D01*
X142551183Y-94484418D01*
X142582031Y-94555266D01*
X142582183Y-94555595D01*
X142633553Y-94666733D01*
X142464601Y-94915253D01*
X142295648Y-95163772D01*
X142512571Y-95381058D01*
X142578181Y-95445726D01*
X142638021Y-95502733D01*
X142688733Y-95549033D01*
X142726954Y-95581584D01*
X142749325Y-95597343D01*
X142752534Y-95598343D01*
X142771374Y-95590469D01*
X142809820Y-95568578D01*
X142863670Y-95535267D01*
X142928724Y-95493131D01*
X142999060Y-95445943D01*
X143070445Y-95397810D01*
X143134092Y-95355928D01*
X143185959Y-95322871D01*
X143222005Y-95301218D01*
X143238133Y-95293543D01*
X143257811Y-95300037D01*
X143295125Y-95317150D01*
X143342379Y-95341326D01*
X143347388Y-95344013D01*
X143411023Y-95375927D01*
X143454659Y-95391579D01*
X143481798Y-95391745D01*
X143495943Y-95377204D01*
X143496025Y-95377000D01*
X143503095Y-95359779D01*
X143519958Y-95318899D01*
X143545305Y-95257525D01*
X143577829Y-95178819D01*
X143616222Y-95085947D01*
X143659178Y-94982072D01*
X143700778Y-94881502D01*
X143746496Y-94770516D01*
X143788474Y-94667703D01*
X143825452Y-94576215D01*
X143856173Y-94499201D01*
X143879378Y-94439815D01*
X143893810Y-94401209D01*
X143898257Y-94386800D01*
X143887104Y-94370272D01*
X143857931Y-94343930D01*
X143819029Y-94314887D01*
X143708243Y-94223039D01*
X143621649Y-94117759D01*
X143560284Y-94001266D01*
X143525185Y-93875776D01*
X143517392Y-93743507D01*
X143523057Y-93682457D01*
X143553922Y-93555795D01*
X143607080Y-93443941D01*
X143679233Y-93348001D01*
X143767083Y-93269076D01*
X143867335Y-93208270D01*
X143976690Y-93166687D01*
X144091853Y-93145428D01*
X144209525Y-93145599D01*
X144326410Y-93168301D01*
X144439211Y-93214638D01*
X144544631Y-93285713D01*
X144588632Y-93325911D01*
X144673021Y-93429129D01*
X144731778Y-93541925D01*
X144765296Y-93661010D01*
X144773965Y-93783095D01*
X144758177Y-93904893D01*
X144718322Y-94023116D01*
X144654793Y-94134475D01*
X144567979Y-94235684D01*
X144470971Y-94314887D01*
X144430563Y-94345162D01*
X144402018Y-94371219D01*
X144391743Y-94386825D01*
X144397123Y-94403843D01*
X144412425Y-94444500D01*
X144436388Y-94505642D01*
X144467756Y-94584119D01*
X144505268Y-94676780D01*
X144547667Y-94780472D01*
X144589337Y-94881526D01*
X144635310Y-94992607D01*
X144677893Y-95095541D01*
X144715779Y-95187165D01*
X144747660Y-95264316D01*
X144772229Y-95323831D01*
X144788180Y-95362544D01*
X144794090Y-95377000D01*
X144808052Y-95391685D01*
X144835060Y-95391642D01*
X144878587Y-95376099D01*
X144942110Y-95344284D01*
X144942612Y-95344013D01*
X144990440Y-95319323D01*
X145029103Y-95301338D01*
X145050905Y-95293614D01*
X145051867Y-95293543D01*
X145068279Y-95301378D01*
X145104513Y-95323165D01*
X145156526Y-95356328D01*
X145220275Y-95398291D01*
X145290940Y-95445943D01*
X145362884Y-95494191D01*
X145427726Y-95536151D01*
X145481265Y-95569227D01*
X145519303Y-95590821D01*
X145537467Y-95598343D01*
X145554192Y-95588457D01*
X145587820Y-95560826D01*
X145634990Y-95518495D01*
X145692342Y-95464505D01*
X145756516Y-95401899D01*
X145777503Y-95380983D01*
X145994501Y-95163623D01*
X145829332Y-94921220D01*
X145779136Y-94846781D01*
X145735081Y-94779972D01*
X145699638Y-94724665D01*
X145675281Y-94684729D01*
X145664478Y-94664036D01*
X145664162Y-94662563D01*
X145669857Y-94643058D01*
X145685174Y-94603822D01*
X145707463Y-94551430D01*
X145723107Y-94516355D01*
X145752359Y-94449201D01*
X145779906Y-94381358D01*
X145801263Y-94324034D01*
X145807065Y-94306572D01*
X145823548Y-94259938D01*
X145839660Y-94223905D01*
X145848510Y-94210287D01*
X145868040Y-94201952D01*
X145910666Y-94190137D01*
X145970855Y-94176181D01*
X146043078Y-94161422D01*
X146075400Y-94155355D01*
X146157478Y-94140273D01*
X146236205Y-94125669D01*
X146303891Y-94112980D01*
X146352840Y-94103642D01*
X146362057Y-94101839D01*
X146438257Y-94086799D01*
X146438257Y-93769492D01*
X146438086Y-93665154D01*
X146437384Y-93586213D01*
X146435866Y-93529038D01*
X146433251Y-93489999D01*
X146429254Y-93465465D01*
X146423591Y-93451805D01*
X146415980Y-93445389D01*
X146412857Y-93444199D01*
X146394022Y-93439980D01*
X146352412Y-93431562D01*
X146293370Y-93419961D01*
X146222243Y-93406195D01*
X146144375Y-93391280D01*
X146065113Y-93376232D01*
X145989802Y-93362069D01*
X145923787Y-93349806D01*
X145872413Y-93340461D01*
X145841025Y-93335050D01*
X145834041Y-93334114D01*
X145827715Y-93321596D01*
X145813710Y-93288246D01*
X145794645Y-93240377D01*
X145787366Y-93221629D01*
X145758004Y-93149195D01*
X145723429Y-93069170D01*
X145692463Y-93001728D01*
X145669677Y-92950159D01*
X145654518Y-92907785D01*
X145649458Y-92881834D01*
X145650264Y-92878356D01*
X145660959Y-92861936D01*
X145685380Y-92825417D01*
X145720905Y-92772687D01*
X145764913Y-92707635D01*
X145814783Y-92634151D01*
X145824644Y-92619645D01*
X145882508Y-92533704D01*
X145925044Y-92468261D01*
X145953946Y-92420304D01*
X145970910Y-92386820D01*
X145977633Y-92364795D01*
X145975810Y-92351217D01*
X145975764Y-92351131D01*
X145961414Y-92333297D01*
X145929677Y-92298817D01*
X145883990Y-92251268D01*
X145827796Y-92194222D01*
X145764532Y-92131255D01*
X145757398Y-92124227D01*
X145677670Y-92047020D01*
X145616143Y-91990330D01*
X145571579Y-91953110D01*
X145542743Y-91934315D01*
X145530042Y-91931889D01*
X145511506Y-91942471D01*
X145473039Y-91966916D01*
X145418614Y-92002612D01*
X145352202Y-92046947D01*
X145277775Y-92097311D01*
X145260399Y-92109160D01*
X145013703Y-92277626D01*
X144902294Y-92227062D01*
X144834543Y-92197595D01*
X144761817Y-92167959D01*
X144699297Y-92144330D01*
X144696543Y-92143358D01*
X144647640Y-92125457D01*
X144609943Y-92110320D01*
X144591575Y-92101210D01*
X144591544Y-92101184D01*
X144585715Y-92084717D01*
X144575808Y-92044219D01*
X144562805Y-91984242D01*
X144547691Y-91909340D01*
X144531448Y-91824064D01*
X144530119Y-91816875D01*
X144513825Y-91729014D01*
X144498867Y-91649260D01*
X144486209Y-91582681D01*
X144476814Y-91534347D01*
X144471646Y-91509325D01*
X144471556Y-91508943D01*
X144468411Y-91498299D01*
X144462296Y-91490262D01*
X144449547Y-91484467D01*
X144426500Y-91480547D01*
X144389491Y-91478135D01*
X144334856Y-91476865D01*
X144258933Y-91476371D01*
X144158056Y-91476286D01*
X144145000Y-91476286D01*
X144041090Y-91476348D01*
G37*
X144041090Y-91476348D02*
X143962546Y-91476778D01*
X143905702Y-91477942D01*
X143866895Y-91480207D01*
X143842462Y-91483940D01*
X143828738Y-91489506D01*
X143822060Y-91497273D01*
X143818764Y-91507605D01*
X143818444Y-91508943D01*
X143813438Y-91533079D01*
X143804171Y-91580701D01*
X143791608Y-91646741D01*
X143776713Y-91726128D01*
X143760449Y-91813796D01*
X143759881Y-91816875D01*
X143743590Y-91902789D01*
X143728348Y-91978696D01*
X143715139Y-92040045D01*
X143704946Y-92082282D01*
X143698752Y-92100855D01*
X143698457Y-92101184D01*
X143680212Y-92110253D01*
X143642595Y-92125367D01*
X143593729Y-92143262D01*
X143593457Y-92143358D01*
X143531907Y-92166493D01*
X143459343Y-92195965D01*
X143390943Y-92225597D01*
X143387706Y-92227062D01*
X143276298Y-92277626D01*
X143029601Y-92109160D01*
X142953923Y-92057803D01*
X142885369Y-92011889D01*
X142827912Y-91974030D01*
X142785524Y-91946837D01*
X142762175Y-91932921D01*
X142759958Y-91931889D01*
X142742990Y-91936484D01*
X142711299Y-91958655D01*
X142663648Y-91999447D01*
X142598802Y-92059905D01*
X142532603Y-92124227D01*
X142468786Y-92187612D01*
X142411671Y-92245451D01*
X142364695Y-92294175D01*
X142331297Y-92330210D01*
X142314915Y-92349984D01*
X142314306Y-92351002D01*
X142312495Y-92364572D01*
X142319317Y-92386733D01*
X142336460Y-92420478D01*
X142365607Y-92468800D01*
X142408445Y-92534692D01*
X142465552Y-92619517D01*
X142516234Y-92694177D01*
X142561539Y-92761140D01*
X142598850Y-92816516D01*
X142625548Y-92856420D01*
X142639015Y-92876962D01*
X142639863Y-92878356D01*
X142638219Y-92898038D01*
X142625755Y-92936293D01*
X142604952Y-92985889D01*
X142597538Y-93001728D01*
X142565186Y-93072290D01*
X142530672Y-93152353D01*
X142502635Y-93221629D01*
X142482432Y-93273045D01*
X142466385Y-93312119D01*
X142457112Y-93332541D01*
X142455959Y-93334114D01*
X142438904Y-93336721D01*
X142398702Y-93343863D01*
X142340698Y-93354523D01*
X142270237Y-93367685D01*
X142192665Y-93382333D01*
X142113328Y-93397449D01*
X142037569Y-93412018D01*
X141970736Y-93425022D01*
X141918172Y-93435445D01*
X141885224Y-93442270D01*
X141877143Y-93444199D01*
X141868795Y-93448962D01*
X141862494Y-93459718D01*
X141857955Y-93480098D01*
X141854896Y-93513734D01*
X141853033Y-93564255D01*
X141852082Y-93635292D01*
X141851760Y-93730476D01*
X141851743Y-93769492D01*
X141851743Y-94086799D01*
X141927943Y-94101839D01*
X141970337Y-94109995D01*
X142033600Y-94121899D01*
X142110038Y-94136116D01*
X142191957Y-94151210D01*
X142214600Y-94155355D01*
X142290194Y-94170053D01*
X142356047Y-94184505D01*
X142406634Y-94197375D01*
X142436426Y-94207322D01*
X142441388Y-94210287D01*
X142453574Y-94231283D01*
X142471047Y-94271967D01*
X142490423Y-94324322D01*
X142494266Y-94335600D01*
X142519661Y-94405523D01*
X142551183Y-94484418D01*
X142582031Y-94555266D01*
X142582183Y-94555595D01*
X142633553Y-94666733D01*
X142464601Y-94915253D01*
X142295648Y-95163772D01*
X142512571Y-95381058D01*
X142578181Y-95445726D01*
X142638021Y-95502733D01*
X142688733Y-95549033D01*
X142726954Y-95581584D01*
X142749325Y-95597343D01*
X142752534Y-95598343D01*
X142771374Y-95590469D01*
X142809820Y-95568578D01*
X142863670Y-95535267D01*
X142928724Y-95493131D01*
X142999060Y-95445943D01*
X143070445Y-95397810D01*
X143134092Y-95355928D01*
X143185959Y-95322871D01*
X143222005Y-95301218D01*
X143238133Y-95293543D01*
X143257811Y-95300037D01*
X143295125Y-95317150D01*
X143342379Y-95341326D01*
X143347388Y-95344013D01*
X143411023Y-95375927D01*
X143454659Y-95391579D01*
X143481798Y-95391745D01*
X143495943Y-95377204D01*
X143496025Y-95377000D01*
X143503095Y-95359779D01*
X143519958Y-95318899D01*
X143545305Y-95257525D01*
X143577829Y-95178819D01*
X143616222Y-95085947D01*
X143659178Y-94982072D01*
X143700778Y-94881502D01*
X143746496Y-94770516D01*
X143788474Y-94667703D01*
X143825452Y-94576215D01*
X143856173Y-94499201D01*
X143879378Y-94439815D01*
X143893810Y-94401209D01*
X143898257Y-94386800D01*
X143887104Y-94370272D01*
X143857931Y-94343930D01*
X143819029Y-94314887D01*
X143708243Y-94223039D01*
X143621649Y-94117759D01*
X143560284Y-94001266D01*
X143525185Y-93875776D01*
X143517392Y-93743507D01*
X143523057Y-93682457D01*
X143553922Y-93555795D01*
X143607080Y-93443941D01*
X143679233Y-93348001D01*
X143767083Y-93269076D01*
X143867335Y-93208270D01*
X143976690Y-93166687D01*
X144091853Y-93145428D01*
X144209525Y-93145599D01*
X144326410Y-93168301D01*
X144439211Y-93214638D01*
X144544631Y-93285713D01*
X144588632Y-93325911D01*
X144673021Y-93429129D01*
X144731778Y-93541925D01*
X144765296Y-93661010D01*
X144773965Y-93783095D01*
X144758177Y-93904893D01*
X144718322Y-94023116D01*
X144654793Y-94134475D01*
X144567979Y-94235684D01*
X144470971Y-94314887D01*
X144430563Y-94345162D01*
X144402018Y-94371219D01*
X144391743Y-94386825D01*
X144397123Y-94403843D01*
X144412425Y-94444500D01*
X144436388Y-94505642D01*
X144467756Y-94584119D01*
X144505268Y-94676780D01*
X144547667Y-94780472D01*
X144589337Y-94881526D01*
X144635310Y-94992607D01*
X144677893Y-95095541D01*
X144715779Y-95187165D01*
X144747660Y-95264316D01*
X144772229Y-95323831D01*
X144788180Y-95362544D01*
X144794090Y-95377000D01*
X144808052Y-95391685D01*
X144835060Y-95391642D01*
X144878587Y-95376099D01*
X144942110Y-95344284D01*
X144942612Y-95344013D01*
X144990440Y-95319323D01*
X145029103Y-95301338D01*
X145050905Y-95293614D01*
X145051867Y-95293543D01*
X145068279Y-95301378D01*
X145104513Y-95323165D01*
X145156526Y-95356328D01*
X145220275Y-95398291D01*
X145290940Y-95445943D01*
X145362884Y-95494191D01*
X145427726Y-95536151D01*
X145481265Y-95569227D01*
X145519303Y-95590821D01*
X145537467Y-95598343D01*
X145554192Y-95588457D01*
X145587820Y-95560826D01*
X145634990Y-95518495D01*
X145692342Y-95464505D01*
X145756516Y-95401899D01*
X145777503Y-95380983D01*
X145994501Y-95163623D01*
X145829332Y-94921220D01*
X145779136Y-94846781D01*
X145735081Y-94779972D01*
X145699638Y-94724665D01*
X145675281Y-94684729D01*
X145664478Y-94664036D01*
X145664162Y-94662563D01*
X145669857Y-94643058D01*
X145685174Y-94603822D01*
X145707463Y-94551430D01*
X145723107Y-94516355D01*
X145752359Y-94449201D01*
X145779906Y-94381358D01*
X145801263Y-94324034D01*
X145807065Y-94306572D01*
X145823548Y-94259938D01*
X145839660Y-94223905D01*
X145848510Y-94210287D01*
X145868040Y-94201952D01*
X145910666Y-94190137D01*
X145970855Y-94176181D01*
X146043078Y-94161422D01*
X146075400Y-94155355D01*
X146157478Y-94140273D01*
X146236205Y-94125669D01*
X146303891Y-94112980D01*
X146352840Y-94103642D01*
X146362057Y-94101839D01*
X146438257Y-94086799D01*
X146438257Y-93769492D01*
X146438086Y-93665154D01*
X146437384Y-93586213D01*
X146435866Y-93529038D01*
X146433251Y-93489999D01*
X146429254Y-93465465D01*
X146423591Y-93451805D01*
X146415980Y-93445389D01*
X146412857Y-93444199D01*
X146394022Y-93439980D01*
X146352412Y-93431562D01*
X146293370Y-93419961D01*
X146222243Y-93406195D01*
X146144375Y-93391280D01*
X146065113Y-93376232D01*
X145989802Y-93362069D01*
X145923787Y-93349806D01*
X145872413Y-93340461D01*
X145841025Y-93335050D01*
X145834041Y-93334114D01*
X145827715Y-93321596D01*
X145813710Y-93288246D01*
X145794645Y-93240377D01*
X145787366Y-93221629D01*
X145758004Y-93149195D01*
X145723429Y-93069170D01*
X145692463Y-93001728D01*
X145669677Y-92950159D01*
X145654518Y-92907785D01*
X145649458Y-92881834D01*
X145650264Y-92878356D01*
X145660959Y-92861936D01*
X145685380Y-92825417D01*
X145720905Y-92772687D01*
X145764913Y-92707635D01*
X145814783Y-92634151D01*
X145824644Y-92619645D01*
X145882508Y-92533704D01*
X145925044Y-92468261D01*
X145953946Y-92420304D01*
X145970910Y-92386820D01*
X145977633Y-92364795D01*
X145975810Y-92351217D01*
X145975764Y-92351131D01*
X145961414Y-92333297D01*
X145929677Y-92298817D01*
X145883990Y-92251268D01*
X145827796Y-92194222D01*
X145764532Y-92131255D01*
X145757398Y-92124227D01*
X145677670Y-92047020D01*
X145616143Y-91990330D01*
X145571579Y-91953110D01*
X145542743Y-91934315D01*
X145530042Y-91931889D01*
X145511506Y-91942471D01*
X145473039Y-91966916D01*
X145418614Y-92002612D01*
X145352202Y-92046947D01*
X145277775Y-92097311D01*
X145260399Y-92109160D01*
X145013703Y-92277626D01*
X144902294Y-92227062D01*
X144834543Y-92197595D01*
X144761817Y-92167959D01*
X144699297Y-92144330D01*
X144696543Y-92143358D01*
X144647640Y-92125457D01*
X144609943Y-92110320D01*
X144591575Y-92101210D01*
X144591544Y-92101184D01*
X144585715Y-92084717D01*
X144575808Y-92044219D01*
X144562805Y-91984242D01*
X144547691Y-91909340D01*
X144531448Y-91824064D01*
X144530119Y-91816875D01*
X144513825Y-91729014D01*
X144498867Y-91649260D01*
X144486209Y-91582681D01*
X144476814Y-91534347D01*
X144471646Y-91509325D01*
X144471556Y-91508943D01*
X144468411Y-91498299D01*
X144462296Y-91490262D01*
X144449547Y-91484467D01*
X144426500Y-91480547D01*
X144389491Y-91478135D01*
X144334856Y-91476865D01*
X144258933Y-91476371D01*
X144158056Y-91476286D01*
X144145000Y-91476286D01*
X144041090Y-91476348D01*
%TD*%
M02*
