%TF.GenerationSoftware,KiCad,Pcbnew,(5.1.6)-1*%
%TF.CreationDate,2022-09-13T14:07:30-04:00*%
%TF.ProjectId,soft-power-sw-simple,736f6674-2d70-46f7-9765-722d73772d73,rev?*%
%TF.SameCoordinates,Original*%
%TF.FileFunction,Paste,Top*%
%TF.FilePolarity,Positive*%
%FSLAX46Y46*%
G04 Gerber Fmt 4.6, Leading zero omitted, Abs format (unit mm)*
G04 Created by KiCad (PCBNEW (5.1.6)-1) date 2022-09-13 14:07:30*
%MOMM*%
%LPD*%
G01*
G04 APERTURE LIST*
%ADD10R,1.525000X0.700000*%
G04 APERTURE END LIST*
%TO.C,C1*%
G36*
G01*
X144722001Y-103826000D02*
X143821999Y-103826000D01*
G75*
G02*
X143572000Y-103576001I0J249999D01*
G01*
X143572000Y-102925999D01*
G75*
G02*
X143821999Y-102676000I249999J0D01*
G01*
X144722001Y-102676000D01*
G75*
G02*
X144972000Y-102925999I0J-249999D01*
G01*
X144972000Y-103576001D01*
G75*
G02*
X144722001Y-103826000I-249999J0D01*
G01*
G37*
G36*
G01*
X144722001Y-101776000D02*
X143821999Y-101776000D01*
G75*
G02*
X143572000Y-101526001I0J249999D01*
G01*
X143572000Y-100875999D01*
G75*
G02*
X143821999Y-100626000I249999J0D01*
G01*
X144722001Y-100626000D01*
G75*
G02*
X144972000Y-100875999I0J-249999D01*
G01*
X144972000Y-101526001D01*
G75*
G02*
X144722001Y-101776000I-249999J0D01*
G01*
G37*
%TD*%
D10*
%TO.C,Q1*%
X141560000Y-95377000D03*
X141560000Y-96647000D03*
X141560000Y-97917000D03*
X141560000Y-99187000D03*
X146984000Y-99187000D03*
X146984000Y-97917000D03*
X146984000Y-96647000D03*
X146984000Y-95377000D03*
%TD*%
%TO.C,R1*%
G36*
G01*
X142663000Y-93795001D02*
X142663000Y-92894999D01*
G75*
G02*
X142912999Y-92645000I249999J0D01*
G01*
X143563001Y-92645000D01*
G75*
G02*
X143813000Y-92894999I0J-249999D01*
G01*
X143813000Y-93795001D01*
G75*
G02*
X143563001Y-94045000I-249999J0D01*
G01*
X142912999Y-94045000D01*
G75*
G02*
X142663000Y-93795001I0J249999D01*
G01*
G37*
G36*
G01*
X144713000Y-93795001D02*
X144713000Y-92894999D01*
G75*
G02*
X144962999Y-92645000I249999J0D01*
G01*
X145613001Y-92645000D01*
G75*
G02*
X145863000Y-92894999I0J-249999D01*
G01*
X145863000Y-93795001D01*
G75*
G02*
X145613001Y-94045000I-249999J0D01*
G01*
X144962999Y-94045000D01*
G75*
G02*
X144713000Y-93795001I0J249999D01*
G01*
G37*
%TD*%
%TO.C,R2*%
G36*
G01*
X140519999Y-102694000D02*
X141420001Y-102694000D01*
G75*
G02*
X141670000Y-102943999I0J-249999D01*
G01*
X141670000Y-103594001D01*
G75*
G02*
X141420001Y-103844000I-249999J0D01*
G01*
X140519999Y-103844000D01*
G75*
G02*
X140270000Y-103594001I0J249999D01*
G01*
X140270000Y-102943999D01*
G75*
G02*
X140519999Y-102694000I249999J0D01*
G01*
G37*
G36*
G01*
X140519999Y-100644000D02*
X141420001Y-100644000D01*
G75*
G02*
X141670000Y-100893999I0J-249999D01*
G01*
X141670000Y-101544001D01*
G75*
G02*
X141420001Y-101794000I-249999J0D01*
G01*
X140519999Y-101794000D01*
G75*
G02*
X140270000Y-101544001I0J249999D01*
G01*
X140270000Y-100893999D01*
G75*
G02*
X140519999Y-100644000I249999J0D01*
G01*
G37*
%TD*%
%TO.C,R3*%
G36*
G01*
X147123999Y-100626000D02*
X148024001Y-100626000D01*
G75*
G02*
X148274000Y-100875999I0J-249999D01*
G01*
X148274000Y-101526001D01*
G75*
G02*
X148024001Y-101776000I-249999J0D01*
G01*
X147123999Y-101776000D01*
G75*
G02*
X146874000Y-101526001I0J249999D01*
G01*
X146874000Y-100875999D01*
G75*
G02*
X147123999Y-100626000I249999J0D01*
G01*
G37*
G36*
G01*
X147123999Y-102676000D02*
X148024001Y-102676000D01*
G75*
G02*
X148274000Y-102925999I0J-249999D01*
G01*
X148274000Y-103576001D01*
G75*
G02*
X148024001Y-103826000I-249999J0D01*
G01*
X147123999Y-103826000D01*
G75*
G02*
X146874000Y-103576001I0J249999D01*
G01*
X146874000Y-102925999D01*
G75*
G02*
X147123999Y-102676000I249999J0D01*
G01*
G37*
%TD*%
M02*
